<svg id="Layer_1" data-name="Layer 1" xmlns="http://www.w3.org/2000/svg" width="60" height="380" viewBox="0 0 60 380">
  <title>LinkBlue</title>
  <rect width="60" height="380" style="fill: #00689a"/>
  <path id="rect6" d="M18.04111,234.17575H41.95889a2.38793,2.38793,0,0,1,2.258,2.4994v38.00121a2.38793,2.38793,0,0,1-2.258,2.4994H18.04111a2.38793,2.38793,0,0,1-2.258-2.4994V236.67515A2.38793,2.38793,0,0,1,18.04111,234.17575Z" style="fill: #fff"/>
  <path id="rect6-2" data-name="rect6" d="M18.04111,289.66127H41.95889a2.38793,2.38793,0,0,1,2.258,2.4994v38.00121a2.38793,2.38793,0,0,1-2.258,2.4994H18.04111a2.38793,2.38793,0,0,1-2.258-2.4994V292.16067A2.38793,2.38793,0,0,1,18.04111,289.66127Z" style="fill: #fff"/>
  <g>
    <g>
      <circle cx="15.8" cy="354.44678" r="5.29999" style="fill: #fff"/>
      <path d="M15.8,354.84677a2.285,2.285,0,0,1-1.2-.8,1.594,1.594,0,0,1-.4-1.2,1.901,1.901,0,0,1,.5-1.3,1.65609,1.65609,0,0,1,1.2-.5,1.61285,1.61285,0,0,1,.9.3,1.34454,1.34454,0,0,1,.6.7,2.95843,2.95843,0,0,1,.2,1h-.7a1.22229,1.22229,0,0,0-.3-.9,1.10088,1.10088,0,0,0-1.9.8.90793.90793,0,0,0,.3.7,1.93375,1.93375,0,0,0,.9.5,9.29492,9.29492,0,0,1,1,.5,1.79371,1.79371,0,0,1,.5.7,2.38816,2.38816,0,0,1,.2.9,1.901,1.901,0,0,1-.5,1.3,1.72763,1.72763,0,0,1-1.3.5,1.92962,1.92962,0,0,1-1-.3,2.33629,2.33629,0,0,1-.7-.7,1.64459,1.64459,0,0,1-.2-1h.7a1.06065,1.06065,0,0,0,1.2,1.2,1.1356,1.1356,0,0,0,.8-.3,1.21662,1.21662,0,0,0,0-1.6C16.6,355.14679,16.2,354.94678,15.8,354.84677Z" style="fill: #00689a"/>
    </g>
    <g>
      <path d="M25.2,351.84677H23.6v5.9h-.7v-5.9H21.3v-.7h3.8Z" style="fill: #fff"/>
      <path d="M28.7,354.64679H26.6v2.3h2.5v.7H25.9v-6.6H29v.7H26.5v2.1h2.1Z" style="fill: #fff"/>
      <path d="M30.5,357.04678h2.4v.7h-3v-6.6h.7Z" style="fill: #fff"/>
      <path d="M34.3,357.04678h2.4v.7h-3v-6.6h.7Z" style="fill: #fff"/>
      <path d="M40.2,356.04678H38.1l-.5,1.7h-.7l1.9-6.6h.6l1.9,6.6h-.7Zm-1.9-.7H40l-.8-3.1Z" style="fill: #fff"/>
      <path d="M43.8,355.04678H42.6v2.7h-.7v-6.6h1.6a1.72763,1.72763,0,0,1,1.3.5,2.06986,2.06986,0,0,1,.5,1.5,2.016,2.016,0,0,1-.3,1.1,2.33691,2.33691,0,0,1-.7.7l1.2,2.8v.1h-.7Zm-1.1-.7h1a1.1356,1.1356,0,0,0,.8-.3,1.5,1.5,0,0,0,0-1.8.98422.98422,0,0,0-.8-.3h-1Z" style="fill: #fff"/>
      <path d="M49.1,354.64679H47v2.3h2.5v.7H46.3v-6.6h3.1v.7H46.9v2.1H49Z" style="fill: #fff"/>
    </g>
  </g>
  <rect x="10.33118" y="23.68498" width="39.33765" height="15.87648" rx="2.28044" ry="2.28044" style="fill: #00689a;stroke: #fff;stroke-miterlimit: 10"/>
  <g>
    <path d="M32.63061,28.35321v5.59427H34.551v.94057H31.63128V28.35322Z" style="fill: #fff"/>
    <path d="M35.73775,28.44124a.61724.61724,0,1,1-.61738.61738.6028.6028,0,0,1,.58786-.61738Q35.723,28.44088,35.73775,28.44124Zm.48,2.32211v4.1247h-.96007V30.76332Z" style="fill: #fff"/>
    <path d="M37.05265,30.76332h.96007v.38219a1.42081,1.42081,0,0,1,1.117-.48992,1.37941,1.37941,0,0,1,1.215.55838,1.8437,1.8437,0,0,1,.25472,1.14636v2.52772h-.9603V32.59552c0-1.04849-.39186-1.07789-.75431-1.07789-.43112,0-.8721.0588-.8721,1.39141v1.979h-.96006Z" style="fill: #fff"/>
    <path d="M42.3199,27.7457v4.399l1.34242-1.38135h1.27362l-1.77342,1.7146,1.90085,2.41013h-1.215l-1.35205-1.76354-.17639.17639v1.58715h-.96007V27.7457Z" style="fill: #fff"/>
    <path d="M22.50038,28.3489a.10689.10689,0,0,0-.09155.09988v.71558a.10886.10886,0,0,0,.09155.1082h6.34888a.10321.10321,0,0,0,.09995-.10636l-.00007-.00184v-.71558a.10121.10121,0,0,0-.09988-.09988Zm0,1.88054a.10689.10689,0,0,0-.09155.09988v.71558a.10886.10886,0,0,0,.09155.1082h6.34888a.10321.10321,0,0,0,.09995-.10636l-.00007-.00184v-.71558a.10121.10121,0,0,0-.09988-.09988Zm0,1.87224a.10689.10689,0,0,0-.09155.09988v.71558a.10886.10886,0,0,0,.09155.1082h6.34888a.10321.10321,0,0,0,.09995-.10636l-.00007-.00184v-.71561a.10121.10121,0,0,0-.09988-.09988Zm0,1.87224a.10689.10689,0,0,0-.09155.09988v.71558a.10886.10886,0,0,0,.09155.1082h6.34888a.10321.10321,0,0,0,.09995-.10636l-.00007-.00184v-.71558a.10121.10121,0,0,0-.09988-.09988Zm-1.01515-5.5251a.10689.10689,0,0,0-.09988-.09155h-.71558a.10886.10886,0,0,0-.1082.09155v6.34888a.1032.1032,0,0,0,.10636.09995l.00184-.00007h.71558a.10121.10121,0,0,0,.09988-.09988Zm-1.88055,0a.10689.10689,0,0,0-.09988-.09155h-.71558a.10886.10886,0,0,0-.1082.09155v6.34888a.1032.1032,0,0,0,.10636.09995l.00184-.00007h.71558a.10121.10121,0,0,0,.09988-.09988Zm-1.87224,0a.10689.10689,0,0,0-.09988-.09155H16.917a.10886.10886,0,0,0-.1082.09155v6.34888a.1032.1032,0,0,0,.10636.09995l.00184-.00007h.71558a.10121.10121,0,0,0,.09988-.09988Zm-1.87224,0a.10689.10689,0,0,0-.09988-.09155h-.71547a.10886.10886,0,0,0-.1082.09155v6.34888a.1032.1032,0,0,0,.10636.09995l.00184-.00007h.71558a.10121.10121,0,0,0,.09988-.09988Z" style="fill: #fff"/>
  </g>
  <g>
    <path d="M18.43945,89.61035H17.3584v2.48779h-.77734V85.94873h1.72363a1.83933,1.83933,0,0,1,1.36816.4707,1.88548,1.88548,0,0,1,.46484,1.37891,1.91975,1.91975,0,0,1-.251.99463,1.59115,1.59115,0,0,1-.71191.64014l1.19043,2.61426v.05078h-.832Zm-1.08105-.66309h.9375a1.00591,1.00591,0,0,0,.77539-.313,1.18888,1.18888,0,0,0,.28906-.83789q0-1.18506-1.07227-1.18457H17.3584Z" style="fill: #fff"/>
    <path d="M24.12109,89.25586H21.94531v2.1792h2.53418v.66309H21.17285V85.94873H24.4375v.66309H21.94531v1.981h2.17578Z" style="fill: #fff"/>
    <path d="M28.1543,90.54395a.94619.94619,0,0,0-.249-.70557,2.55344,2.55344,0,0,0-.89941-.47705,3.90551,3.90551,0,0,1-.99512-.48779,1.73051,1.73051,0,0,1-.51562-.583,1.72888,1.72888,0,0,1,.31738-1.95361,1.75872,1.75872,0,0,1,1.27734-.47266,1.90268,1.90268,0,0,1,.96289.24121,1.6436,1.6436,0,0,1,.65039.67139,1.98533,1.98533,0,0,1,.22852.9458H28.1543a1.29676,1.29676,0,0,0-.27441-.88281.9957.9957,0,0,0-.79-.3125.97287.97287,0,0,0-.72656.26221,1.00575,1.00575,0,0,0-.25781.73633.85622.85622,0,0,0,.2793.65137,2.46694,2.46694,0,0,0,.86133.46973,2.965,2.965,0,0,1,1.29883.73975,1.663,1.663,0,0,1,.39063,1.14893,1.55573,1.55573,0,0,1-.48535,1.19727,1.871,1.871,0,0,1-1.32227.44971,2.127,2.127,0,0,1-.99023-.23437,1.77117,1.77117,0,0,1-.71387-.65869,1.83185,1.83185,0,0,1-.25977-.97363h.77734a1.19242,1.19242,0,0,0,.31836.88672,1.17707,1.17707,0,0,0,.86816.31689,1.03384,1.03384,0,0,0,.76855-.26172A.97375.97375,0,0,0,28.1543,90.54395Z" style="fill: #fff"/>
    <path d="M31.5498,89.03613l1.25879-3.0874h.873l-1.74707,3.856v2.29346h-.77344V89.80469l-1.748-3.856H30.291Z" style="fill: #fff"/>
    <path d="M38.502,92.09814h-.77734L35.2627,87.35938v4.73877h-.77734V85.94873h.77734l2.4707,4.75977V85.94873H38.502Z" style="fill: #fff"/>
    <path d="M43.69727,90.14258a2.27929,2.27929,0,0,1-.55566,1.51416,1.8836,1.8836,0,0,1-1.42578.52588,1.76273,1.76273,0,0,1-1.46973-.70312,3.03652,3.03652,0,0,1-.54492-1.90723V88.45752a2.94533,2.94533,0,0,1,.55957-1.89648,1.8535,1.8535,0,0,1,1.52734-.69678,1.77618,1.77618,0,0,1,1.37891.53223,2.3317,2.3317,0,0,1,.53027,1.52441H42.916a1.9,1.9,0,0,0-.31738-1.07275.99142.99142,0,0,0-.81055-.3208,1.10431,1.10431,0,0,0-.96777.4917,2.55389,2.55389,0,0,0-.33789,1.44238v1.12793a2.69039,2.69039,0,0,0,.31543,1.43164,1.01806,1.01806,0,0,0,.918.49854,1.10982,1.10982,0,0,0,.87012-.2998,1.891,1.891,0,0,0,.33008-1.07715Z" style="fill: #fff"/>
  </g>
  <g>
    <path d="M21.3125,150.65967a3.067,3.067,0,0,1-.53711,1.93848,1.82717,1.82717,0,0,1-1.52441.68018,1.85247,1.85247,0,0,1-1.502-.66113,2.92729,2.92729,0,0,1-.57227-1.86865v-1.15723a3.07176,3.07176,0,0,1,.54492-1.93262,1.819,1.819,0,0,1,1.52051-.69873,1.84231,1.84231,0,0,1,1.51465.66943,3.02118,3.02118,0,0,1,.55566,1.91113Zm-.77344-1.07715a2.64178,2.64178,0,0,0-.31836-1.45068,1.22615,1.22615,0,0,0-1.94336.00635,2.54682,2.54682,0,0,0-.33105,1.41895v1.10254a2.60116,2.60116,0,0,0,.32715,1.436,1.22878,1.22878,0,0,0,1.94043.03809,2.569,2.569,0,0,0,.3252-1.39795Z" style="fill: #fff"/>
    <path d="M25.3584,150.478H23.28027v2.71582h-.77344v-6.14941H25.709v.66309H23.28027v2.10742H25.3584Z" style="fill: #fff"/>
    <path d="M29.51465,150.478H27.43652v2.71582h-.77344v-6.14941h3.20215v.66309H27.43652v2.10742h2.07813Z" style="fill: #fff"/>
    <path d="M33.50586,151.63965a.94619.94619,0,0,0-.249-.70557,2.55344,2.55344,0,0,0-.89941-.47705,3.90551,3.90551,0,0,1-.99512-.48779,1.73051,1.73051,0,0,1-.51562-.583,1.72888,1.72888,0,0,1,.31738-1.95361,1.75872,1.75872,0,0,1,1.27734-.47266,1.90268,1.90268,0,0,1,.96289.24121,1.65208,1.65208,0,0,1,.65137.67139,1.98533,1.98533,0,0,1,.22852.9458h-.77832a1.29676,1.29676,0,0,0-.27441-.88281.9957.9957,0,0,0-.79-.3125.97287.97287,0,0,0-.72656.26221,1.00575,1.00575,0,0,0-.25781.73633.85622.85622,0,0,0,.2793.65137,2.46694,2.46694,0,0,0,.86133.46973,2.965,2.965,0,0,1,1.29883.73975,1.66353,1.66353,0,0,1,.3916,1.14893,1.553,1.553,0,0,1-.48633,1.19727,1.871,1.871,0,0,1-1.32227.44971,2.127,2.127,0,0,1-.99023-.23437,1.77117,1.77117,0,0,1-.71387-.65869,1.83185,1.83185,0,0,1-.25977-.97363H31.293a1.19242,1.19242,0,0,0,.31836.88672,1.17707,1.17707,0,0,0,.86816.31689,1.03384,1.03384,0,0,0,.76855-.26172A.97375.97375,0,0,0,33.50586,151.63965Z" style="fill: #fff"/>
    <path d="M38.249,150.35156H36.07324v2.1792h2.53418v.66309H35.30078v-6.14941h3.26465v.66309H36.07324v1.981H38.249Z" style="fill: #fff"/>
    <path d="M43.27539,147.70752H41.65723v5.48633h-.77246v-5.48633H39.27148v-.66309h4.00391Z" style="fill: #fff"/>
  </g>
  <g>
    <path d="M21.499,211.30664a.94738.94738,0,0,0-.249-.70605,2.54612,2.54612,0,0,0-.89941-.47656,3.89572,3.89572,0,0,1-.99414-.48828,1.72141,1.72141,0,0,1-.51562-.583,1.7297,1.7297,0,0,1,.31641-1.95312,1.75749,1.75749,0,0,1,1.27832-.47266,1.90524,1.90524,0,0,1,.96289.24121,1.64852,1.64852,0,0,1,.65039.6709,1.998,1.998,0,0,1,.22754.94629H21.499a1.29012,1.29012,0,0,0-.27441-.88281.992.992,0,0,0-.78906-.3125.97264.97264,0,0,0-.72656.26172,1.00652,1.00652,0,0,0-.25781.73633.858.858,0,0,0,.27832.65137,2.47389,2.47389,0,0,0,.8623.46973,2.971,2.971,0,0,1,1.29883.74023,1.66725,1.66725,0,0,1,.39063,1.14844,1.553,1.553,0,0,1-.48633,1.19727,1.86872,1.86872,0,0,1-1.32129.4502,2.12807,2.12807,0,0,1-.99121-.23437,1.77521,1.77521,0,0,1-.71387-.65918,1.83064,1.83064,0,0,1-.25977-.97363h.77734a1.19289,1.19289,0,0,0,.31934.88672,1.17386,1.17386,0,0,0,.86816.31738,1.03734,1.03734,0,0,0,.76855-.26172A.978.978,0,0,0,21.499,211.30664Z" style="fill: #fff"/>
    <path d="M24.46875,210.92188l.08008.68848.123-.6084.9834-4.291h.64648l.95508,4.291.12207.625.08887-.709.752-4.207h.77246l-1.22461,6.14941h-.69727l-1.02637-4.48145-.06348-.36328-.0625.36328-1.06445,4.48145h-.70117l-1.2207-6.14941h.77246Z" style="fill: #fff"/>
    <path d="M30.69043,212.86035H29.917v-6.14941h.77344Z" style="fill: #fff"/>
    <path d="M36.0625,212.86035h-.77734l-2.46191-4.73828v4.73828H32.0459v-6.14941h.77734l2.4707,4.75977v-4.75977h.76855Z" style="fill: #fff"/>
    <path d="M41.249,212.0957l-.13477.16895a2.12305,2.12305,0,0,1-1.707.68066,1.95511,1.95511,0,0,1-1.56445-.66113,2.83,2.83,0,0,1-.58105-1.86914v-1.208a3.05364,3.05364,0,0,1,.51758-1.93652,2.18335,2.18335,0,0,1,2.92285-.15625,2.03973,2.03973,0,0,1,.54688,1.39551h-.77246a1.55692,1.55692,0,0,0-.31934-.89746,1.02069,1.02069,0,0,0-.8252-.32227,1.10891,1.10891,0,0,0-.97168.43262,2.48086,2.48086,0,0,0-.32129,1.38281v1.25488a2.43392,2.43392,0,0,0,.35449,1.42578,1.17865,1.17865,0,0,0,1.01855.49609,1.35051,1.35051,0,0,0,.9502-.30273l.11426-.10547v-1.41211h-1.124v-.66309H41.249Z" style="fill: #fff"/>
  </g>
  <g>
    <path d="M21.481,328.5127H20.3999V331h-.77734v-6.14941H21.3457a1.84326,1.84326,0,0,1,1.36865.4707,1.88687,1.88687,0,0,1,.46436,1.37891,1.91686,1.91686,0,0,1-.251.99512,1.58509,1.58509,0,0,1-.71191.63965l1.19092,2.61426V331h-.832Zm-1.08105-.66309h.9375a1.00349,1.00349,0,0,0,.7749-.31348,1.18691,1.18691,0,0,0,.28955-.83789q0-1.18506-1.07275-1.18457h-.9292Z" style="fill: #00689a"/>
    <path d="M27.16211,328.1582H24.98682v2.17871H27.521V331H24.21387v-6.14941h3.26465v.66309h-2.4917v1.98145h2.17529Z" style="fill: #00689a"/>
    <path d="M31.19531,329.44629a.94738.94738,0,0,0-.249-.70605,2.54612,2.54612,0,0,0-.89941-.47656,3.90009,3.90009,0,0,1-.99463-.48828,1.72141,1.72141,0,0,1-.51562-.583,1.7289,1.7289,0,0,1,.31689-1.95312,1.75709,1.75709,0,0,1,1.27783-.47266,1.90708,1.90708,0,0,1,.96338.24121,1.64852,1.64852,0,0,1,.65039.6709,1.998,1.998,0,0,1,.22754.94629h-.77734a1.29012,1.29012,0,0,0-.27441-.88281.993.993,0,0,0-.78955-.3125.97264.97264,0,0,0-.72656.26172,1.00652,1.00652,0,0,0-.25781.73633.85676.85676,0,0,0,.27881.65137,2.46646,2.46646,0,0,0,.86182.46973,2.97024,2.97024,0,0,1,1.29932.74023,1.66725,1.66725,0,0,1,.39063,1.14844,1.553,1.553,0,0,1-.48633,1.19727,1.86917,1.86917,0,0,1-1.32178.4502,2.12752,2.12752,0,0,1-.99072-.23437,1.77208,1.77208,0,0,1-.71387-.65918,1.83064,1.83064,0,0,1-.25977-.97363h.77734a1.19266,1.19266,0,0,0,.31885.88672,1.17462,1.17462,0,0,0,.86816.31738,1.03658,1.03658,0,0,0,.76855-.26172A.97626.97626,0,0,0,31.19531,329.44629Z" style="fill: #00689a"/>
    <path d="M35.93848,328.1582h-2.1748v2.17871h2.53418V331H32.99023v-6.14941h3.26465v.66309H33.76367v1.98145h2.1748Z" style="fill: #00689a"/>
    <path d="M40.96582,325.51367H39.34766V331H38.5752v-5.48633H36.96191v-.66309h4.00391Z" style="fill: #00689a"/>
  </g>
  <g>
    <path d="M27.02686,275.52832h-.63379l2.1582-6.67773h.62939Z" style="fill: #00689a"/>
    <path d="M32.792,272.93457h.68359v.6377H32.792V275h-.748v-1.42773H29.72119v-.46l2.28467-4.26172H32.792Zm-2.24316,0h1.49512v-2.92285Z" style="fill: #00689a"/>
  </g>
  <rect x="5.54492" y="7.21745" width="48.91016" height="365.05208" style="fill: none;stroke: #fff;stroke-miterlimit: 10"/>
  <path d="M18.7454,202.16483a17.79395,17.79395,0,1,1,22.50822,0" style="fill: none;stroke: #fff;stroke-miterlimit: 10"/>
  <path d="M18.7454,141.91092a17.79395,17.79395,0,1,1,22.50822,0" style="fill: none;stroke: #fff;stroke-miterlimit: 10"/>
</svg>
