<svg id="Layer_1" data-name="Layer 1" xmlns="http://www.w3.org/2000/svg" width="60" height="380" viewBox="0 0 60 380">
  <title>LinkDarkGrey</title>
  <rect width="60" height="380" style="fill: #3c3c3b"/>
  <g>
    <g>
      <circle cx="15.8" cy="354.44678" r="5.29999" style="fill: #fff"/>
      <path d="M15.8,354.84677a2.285,2.285,0,0,1-1.2-.8,1.594,1.594,0,0,1-.4-1.2,1.901,1.901,0,0,1,.5-1.3,1.65609,1.65609,0,0,1,1.2-.5,1.61285,1.61285,0,0,1,.9.3,1.34454,1.34454,0,0,1,.6.7,2.95843,2.95843,0,0,1,.2,1h-.7a1.22229,1.22229,0,0,0-.3-.9,1.10088,1.10088,0,0,0-1.9.8.90793.90793,0,0,0,.3.7,1.93375,1.93375,0,0,0,.9.5,9.29492,9.29492,0,0,1,1,.5,1.79371,1.79371,0,0,1,.5.7,2.38816,2.38816,0,0,1,.2.9,1.901,1.901,0,0,1-.5,1.3,1.72763,1.72763,0,0,1-1.3.5,1.92962,1.92962,0,0,1-1-.3,2.33629,2.33629,0,0,1-.7-.7,1.64459,1.64459,0,0,1-.2-1h.7a1.06065,1.06065,0,0,0,1.2,1.2,1.1356,1.1356,0,0,0,.8-.3,1.21662,1.21662,0,0,0,0-1.6C16.6,355.14679,16.2,354.94678,15.8,354.84677Z" style="fill: #1d1d1b"/>
    </g>
    <g>
      <path d="M25.2,351.84677H23.6v5.9h-.7v-5.9H21.3v-.7h3.8Z" style="fill: #fff"/>
      <path d="M28.7,354.64679H26.6v2.3h2.5v.7H25.9v-6.6H29v.7H26.5v2.1h2.1Z" style="fill: #fff"/>
      <path d="M30.5,357.04678h2.4v.7h-3v-6.6h.7Z" style="fill: #fff"/>
      <path d="M34.3,357.04678h2.4v.7h-3v-6.6h.7Z" style="fill: #fff"/>
      <path d="M40.2,356.04678H38.1l-.5,1.7h-.7l1.9-6.6h.6l1.9,6.6h-.7Zm-1.9-.7H40l-.8-3.1Z" style="fill: #fff"/>
      <path d="M43.8,355.04678H42.6v2.7h-.7v-6.6h1.6a1.72763,1.72763,0,0,1,1.3.5,2.06986,2.06986,0,0,1,.5,1.5,2.016,2.016,0,0,1-.3,1.1,2.33691,2.33691,0,0,1-.7.7l1.2,2.8v.1h-.7Zm-1.1-.7h1a1.1356,1.1356,0,0,0,.8-.3,1.5,1.5,0,0,0,0-1.8.98422.98422,0,0,0-.8-.3h-1Z" style="fill: #fff"/>
      <path d="M49.1,354.64679H47v2.3h2.5v.7H46.3v-6.6h3.1v.7H46.9v2.1H49Z" style="fill: #fff"/>
    </g>
  </g>
  <g>
    <rect x="10.33118" y="23.68498" width="39.33765" height="15.87648" rx="2.28044" ry="2.28044" style="fill: #1e1b1c;stroke: #fff;stroke-miterlimit: 10"/>
    <g>
      <path d="M32.63061,28.35321v5.59427H34.551v.94057H31.63128V28.35322Z" style="fill: #fff"/>
      <path d="M35.73775,28.44124a.61724.61724,0,1,1-.61738.61738.6028.6028,0,0,1,.58786-.61738Q35.723,28.44088,35.73775,28.44124Zm.48,2.32211v4.1247h-.96007V30.76332Z" style="fill: #fff"/>
      <path d="M37.05265,30.76332h.96007v.38219a1.42081,1.42081,0,0,1,1.117-.48992,1.37941,1.37941,0,0,1,1.215.55838,1.8437,1.8437,0,0,1,.25472,1.14636v2.52772h-.9603V32.59552c0-1.04849-.39186-1.07789-.75431-1.07789-.43112,0-.8721.0588-.8721,1.39141v1.979h-.96006Z" style="fill: #fff"/>
      <path d="M42.3199,27.7457v4.399l1.34242-1.38135h1.27362l-1.77342,1.7146,1.90085,2.41013h-1.215l-1.35205-1.76354-.17639.17639v1.58715h-.96007V27.7457Z" style="fill: #fff"/>
      <path d="M22.50038,28.3489a.10689.10689,0,0,0-.09155.09988v.71558a.10886.10886,0,0,0,.09155.1082h6.34888a.10321.10321,0,0,0,.09995-.10636l-.00007-.00184v-.71558a.10121.10121,0,0,0-.09988-.09988Zm0,1.88054a.10689.10689,0,0,0-.09155.09988v.71558a.10886.10886,0,0,0,.09155.1082h6.34888a.10321.10321,0,0,0,.09995-.10636l-.00007-.00184v-.71558a.10121.10121,0,0,0-.09988-.09988Zm0,1.87224a.10689.10689,0,0,0-.09155.09988v.71558a.10886.10886,0,0,0,.09155.1082h6.34888a.10321.10321,0,0,0,.09995-.10636l-.00007-.00184v-.71561a.10121.10121,0,0,0-.09988-.09988Zm0,1.87224a.10689.10689,0,0,0-.09155.09988v.71558a.10886.10886,0,0,0,.09155.1082h6.34888a.10321.10321,0,0,0,.09995-.10636l-.00007-.00184v-.71558a.10121.10121,0,0,0-.09988-.09988Zm-1.01515-5.5251a.10689.10689,0,0,0-.09988-.09155h-.71558a.10886.10886,0,0,0-.1082.09155v6.34888a.1032.1032,0,0,0,.10636.09995l.00184-.00007h.71558a.10121.10121,0,0,0,.09988-.09988Zm-1.88055,0a.10689.10689,0,0,0-.09988-.09155h-.71558a.10886.10886,0,0,0-.1082.09155v6.34888a.1032.1032,0,0,0,.10636.09995l.00184-.00007h.71558a.10121.10121,0,0,0,.09988-.09988Zm-1.87224,0a.10689.10689,0,0,0-.09988-.09155H16.917a.10886.10886,0,0,0-.1082.09155v6.34888a.1032.1032,0,0,0,.10636.09995l.00184-.00007h.71558a.10121.10121,0,0,0,.09988-.09988Zm-1.87224,0a.10689.10689,0,0,0-.09988-.09155h-.71547a.10886.10886,0,0,0-.1082.09155v6.34888a.1032.1032,0,0,0,.10636.09995l.00184-.00007h.71558a.10121.10121,0,0,0,.09988-.09988Z" style="fill: #fff"/>
    </g>
  </g>
  <g>
    <path d="M17.16113,89.33545h-1.2002v2.7627h-.86328V85.26855h1.91406a2.04344,2.04344,0,0,1,1.51953.52295,2.09281,2.09281,0,0,1,.51563,1.53125,2.13374,2.13374,0,0,1-.27832,1.105,1.76728,1.76728,0,0,1-.791.71045L19.30078,92.042v.05615H18.376Zm-1.2002-.73682h1.041a1.11388,1.11388,0,0,0,.86035-.34766,1.314,1.314,0,0,0,.32129-.93018q0-1.31616-1.19141-1.31592H15.96094Z" style="fill: #fff"/>
    <path d="M23.4707,88.94141h-2.416v2.42041h2.81445v.73633H20.19629V85.26855h3.626v.73633H21.05469v2.19971h2.416Z" style="fill: #fff"/>
    <path d="M27.9502,90.37207a1.0506,1.0506,0,0,0-.27637-.78369,2.83859,2.83859,0,0,0-.999-.52979,4.32526,4.32526,0,0,1-1.10449-.542,1.90846,1.90846,0,0,1-.57227-.647,1.91888,1.91888,0,0,1,.35156-2.16992,1.95264,1.95264,0,0,1,1.41895-.52539,2.11539,2.11539,0,0,1,1.06934.26807,1.83324,1.83324,0,0,1,.72266.74609,2.20454,2.20454,0,0,1,.25293,1.0498H27.9502a1.43807,1.43807,0,0,0-.30469-.98,1.10406,1.10406,0,0,0-.877-.34717,1.07923,1.07923,0,0,0-.80664.291,1.115,1.115,0,0,0-.28613.81787.95137.95137,0,0,0,.30957.72363,2.73688,2.73688,0,0,0,.957.52148,3.30337,3.30337,0,0,1,1.44238.82129,1.851,1.851,0,0,1,.43359,1.27637,1.72622,1.72622,0,0,1-.53906,1.32959,2.07911,2.07911,0,0,1-1.46875.49951,2.36162,2.36162,0,0,1-1.09961-.26025,1.962,1.962,0,0,1-.793-.73193,2.02678,2.02678,0,0,1-.28809-1.08105h.8623a1.3248,1.3248,0,0,0,.35449.98486,1.3069,1.3069,0,0,0,.96387.35205,1.14587,1.14587,0,0,0,.85352-.291A1.07811,1.07811,0,0,0,27.9502,90.37207Z" style="fill: #fff"/>
    <path d="M31.72168,88.69727l1.39746-3.42871h.9707l-1.94141,4.28271v2.54688H31.29V89.55127l-1.94238-4.28271h.97559Z" style="fill: #fff"/>
    <path d="M39.44238,92.09814H38.5791L35.84473,86.835v5.26318h-.86328V85.26855h.86328l2.74414,5.28613V85.26855h.85352Z" style="fill: #fff"/>
    <path d="M45.21289,89.92627a2.53166,2.53166,0,0,1-.61719,1.68164,2.09216,2.09216,0,0,1-1.583.584,1.95836,1.95836,0,0,1-1.63281-.78076,3.37468,3.37468,0,0,1-.60449-2.11816V88.05469a3.27158,3.27158,0,0,1,.62109-2.106,2.05717,2.05717,0,0,1,1.69531-.77441,1.97444,1.97444,0,0,1,1.53223.59131,2.58915,2.58915,0,0,1,.58887,1.69336h-.86816a2.11276,2.11276,0,0,0-.35156-1.19141,1.103,1.103,0,0,0-.90137-.35645,1.22316,1.22316,0,0,0-1.07324.54639,2.82312,2.82312,0,0,0-.376,1.60205V89.312a2.98553,2.98553,0,0,0,.34961,1.58984,1.13359,1.13359,0,0,0,1.02051.55371,1.2309,1.2309,0,0,0,.96582-.333,2.09362,2.09362,0,0,0,.36621-1.19629Z" style="fill: #fff"/>
  </g>
  <g>
    <path d="M20.35059,150.37939a3.40341,3.40341,0,0,1-.5957,2.15283,2.031,2.031,0,0,1-1.69336.75537,2.055,2.055,0,0,1-1.667-.73389,3.24759,3.24759,0,0,1-.63574-2.07568v-1.28564a3.41081,3.41081,0,0,1,.60449-2.146,2.02065,2.02065,0,0,1,1.68945-.77637,2.04565,2.04565,0,0,1,1.68164.74365,3.34955,3.34955,0,0,1,.61621,2.12256Zm-.8584-1.19629a2.926,2.926,0,0,0-.35449-1.61133,1.36095,1.36095,0,0,0-2.15723.00732,2.83282,2.83282,0,0,0-.36816,1.57617v1.22412a2.89444,2.89444,0,0,0,.36328,1.59473,1.365,1.365,0,0,0,2.15527.04248,2.84165,2.84165,0,0,0,.36133-1.55273Z" style="fill: #fff"/>
    <path d="M24.84473,150.17773H22.53613v3.01611h-.8584v-6.82959H25.2334v.73633H22.53613v2.34082h2.30859Z" style="fill: #fff"/>
    <path d="M29.46,150.17773H27.15234v3.01611h-.8584v-6.82959h3.55566v.73633H27.15234v2.34082H29.46Z" style="fill: #fff"/>
    <path d="M33.89258,151.46777a1.0506,1.0506,0,0,0-.27637-.78369,2.84781,2.84781,0,0,0-.999-.52979,4.32527,4.32527,0,0,1-1.10449-.542,1.90846,1.90846,0,0,1-.57227-.647,1.91888,1.91888,0,0,1,.35156-2.16992,1.95264,1.95264,0,0,1,1.41895-.52539,2.11539,2.11539,0,0,1,1.06934.26807,1.83324,1.83324,0,0,1,.72266.74609,2.21592,2.21592,0,0,1,.25293,1.0498h-.86328a1.43807,1.43807,0,0,0-.30469-.98,1.10543,1.10543,0,0,0-.877-.34717,1.07923,1.07923,0,0,0-.80664.291,1.115,1.115,0,0,0-.28613.81787.95137.95137,0,0,0,.30957.72363,2.73688,2.73688,0,0,0,.957.52148,3.29324,3.29324,0,0,1,1.44141.82129,1.8468,1.8468,0,0,1,.43457,1.27637,1.72352,1.72352,0,0,1-.54,1.32959,2.075,2.075,0,0,1-1.46777.49951,2.36162,2.36162,0,0,1-1.09961-.26025,1.962,1.962,0,0,1-.793-.73193,2.02678,2.02678,0,0,1-.28809-1.08105h.8623a1.3248,1.3248,0,0,0,.35449.98486,1.3069,1.3069,0,0,0,.96387.35205,1.14738,1.14738,0,0,0,.85352-.291A1.08209,1.08209,0,0,0,33.89258,151.46777Z" style="fill: #fff"/>
    <path d="M39.16113,150.03711h-2.416v2.42041h2.81445v.73633H35.88672v-6.82959h3.626v.73633H36.74512v2.19971h2.416Z" style="fill: #fff"/>
    <path d="M44.74316,147.10059H42.94629v6.09326h-.8584v-6.09326h-1.792v-.73633h4.44727Z" style="fill: #fff"/>
  </g>
  <g>
    <path d="M20.55957,211.13477a1.0522,1.0522,0,0,0-.27734-.78418,2.84727,2.84727,0,0,0-.999-.5293,4.32527,4.32527,0,0,1-1.10449-.542,1.92487,1.92487,0,0,1-.57227-.64746,1.92368,1.92368,0,0,1,.35156-2.16992,1.95623,1.95623,0,0,1,1.41895-.52539,2.1219,2.1219,0,0,1,1.07031.26855,1.8309,1.8309,0,0,1,.72168.74609,2.20385,2.20385,0,0,1,.25391,1.0498h-.86328a1.43943,1.43943,0,0,0-.30469-.98047,1.10728,1.10728,0,0,0-.87793-.34668,1.07882,1.07882,0,0,0-.80664.291,1.11858,1.11858,0,0,0-.28613.81738.9548.9548,0,0,0,.30957.72363,2.746,2.746,0,0,0,.957.52148,3.29168,3.29168,0,0,1,1.44238.82129,1.85179,1.85179,0,0,1,.43359,1.27637,1.72657,1.72657,0,0,1-.53906,1.33008,2.07474,2.07474,0,0,1-1.46777.499,2.3712,2.3712,0,0,1-1.10059-.25977,1.97279,1.97279,0,0,1-.793-.73242,2.03314,2.03314,0,0,1-.28809-1.08105h.86328a1.32522,1.32522,0,0,0,.35449.98535,1.30552,1.30552,0,0,0,.96387.35156,1.14692,1.14692,0,0,0,.85352-.291A1.0809,1.0809,0,0,0,20.55957,211.13477Z" style="fill: #fff"/>
    <path d="M23.85742,210.708l.08887.76367.13574-.6748,1.09277-4.76562h.71777l1.06055,4.76563.13574.69434.09863-.78809.835-4.67187h.8584l-1.36035,6.8291h-.77344l-1.14062-4.97656-.07031-.40332-.07031.40332-1.18164,4.97656h-.7793l-1.35547-6.8291h.8584Z" style="fill: #fff"/>
    <path d="M30.7666,212.86035h-.8584v-6.8291h.8584Z" style="fill: #fff"/>
    <path d="M36.7334,212.86035h-.86328l-2.73437-5.2627v5.2627h-.86328v-6.8291h.86328l2.74414,5.28613v-5.28613h.85352Z" style="fill: #fff"/>
    <path d="M42.49414,212.01172l-.15039.1875a2.35689,2.35689,0,0,1-1.89453.75488,2.17109,2.17109,0,0,1-1.73828-.7334,3.14048,3.14048,0,0,1-.64453-2.07617v-1.3418a3.38866,3.38866,0,0,1,.57422-2.15039,2.42213,2.42213,0,0,1,3.24609-.17383,2.26348,2.26348,0,0,1,.60742,1.55078h-.8584a1.72079,1.72079,0,0,0-.35449-.99707,1.13044,1.13044,0,0,0-.917-.3584,1.23424,1.23424,0,0,0-1.0791.48047,2.76829,2.76829,0,0,0-.35645,1.53613V210.084a2.69878,2.69878,0,0,0,.39453,1.583,1.30591,1.30591,0,0,0,1.13086.55078,1.49649,1.49649,0,0,0,1.05469-.33594l.127-.11719v-1.56836h-1.248V209.46h2.10645Z" style="fill: #fff"/>
  </g>
  <path id="path21497-2" d="M47.366,287.92221a3.59716,3.59716,0,0,0-3.584-3.58888H16.22282a3.60129,3.60129,0,0,0-3.58883,3.58888v43.66964a3.597,3.597,0,0,0,3.58883,3.5839H43.782a3.593,3.593,0,0,0,3.584-3.5839Z" style="fill: #fff"/>
  <g>
    <path d="M20.53857,328.2373H19.33789V331h-.86328v-6.8291h1.91406a2.04327,2.04327,0,0,1,1.51953.52246,2.09168,2.09168,0,0,1,.51611,1.53125,2.13451,2.13451,0,0,1-.27881,1.10547,1.76784,1.76784,0,0,1-.79053.71l1.32275,2.9043V331h-.92432Zm-1.20068-.73633h1.0415a1.11558,1.11558,0,0,0,.86035-.34766,1.31749,1.31749,0,0,0,.32129-.93066q0-1.31543-1.19141-1.31543H19.33789Z" style="fill: #1d1d1b"/>
    <path d="M26.84766,327.84375h-2.416v2.41992h2.81445V331H23.57324v-6.8291h3.626v.73633H24.43164v2.19922h2.416Z" style="fill: #1d1d1b"/>
    <path d="M31.32813,329.27441a1.0522,1.0522,0,0,0-.27734-.78418,2.84727,2.84727,0,0,0-.999-.5293,4.32527,4.32527,0,0,1-1.10449-.542,1.91959,1.91959,0,0,1-.57227-.64746,1.92128,1.92128,0,0,1,.35156-2.16992,1.95544,1.95544,0,0,1,1.41895-.52539,2.1219,2.1219,0,0,1,1.07031.26855,1.8309,1.8309,0,0,1,.72168.74609,2.20385,2.20385,0,0,1,.25391,1.0498h-.86328a1.43943,1.43943,0,0,0-.30469-.98047,1.10728,1.10728,0,0,0-.87793-.34668,1.07807,1.07807,0,0,0-.80664.291,1.11655,1.11655,0,0,0-.28613.81738.95308.95308,0,0,0,.30957.72363,2.74144,2.74144,0,0,0,.957.52148,3.2946,3.2946,0,0,1,1.44238.82129,1.85179,1.85179,0,0,1,.43359,1.27637,1.72657,1.72657,0,0,1-.53906,1.33008,2.076,2.076,0,0,1-1.46826.499,2.36922,2.36922,0,0,1-1.1001-.25977,1.96965,1.96965,0,0,1-.793-.73242,2.02875,2.02875,0,0,1-.28809-1.08105h.86279a1.32522,1.32522,0,0,0,.35449.98535,1.30706,1.30706,0,0,0,.96387.35156,1.14738,1.14738,0,0,0,.854-.291A1.0809,1.0809,0,0,0,31.32813,329.27441Z" style="fill: #1d1d1b"/>
    <path d="M36.5957,327.84375h-2.416v2.41992h2.81445V331H33.32129v-6.8291h3.626v.73633H34.17969v2.19922h2.416Z" style="fill: #1d1d1b"/>
    <path d="M42.17773,324.90723H40.38086V331h-.8584v-6.09277h-1.792v-.73633h4.44727Z" style="fill: #1d1d1b"/>
  </g>
  <path id="path21497-2-2" data-name="path21497-2" d="M47.366,231.92221a3.59716,3.59716,0,0,0-3.584-3.58888H16.22282a3.60129,3.60129,0,0,0-3.58883,3.58888v43.66964a3.597,3.597,0,0,0,3.58883,3.5839H43.782a3.593,3.593,0,0,0,3.584-3.5839Z" style="fill: #fff"/>
  <g>
    <path d="M26.69775,275.58691h-.70361l2.397-7.416h.69873Z" style="fill: #1d1d1b"/>
    <path d="M33.10059,272.70605h.75977v.709h-.75977V275h-.83008v-1.585H29.69043v-.51172l2.53809-4.73242h.87207Zm-2.49072,0h1.66064V269.46Z" style="fill: #1d1d1b"/>
  </g>
  <rect x="5.54492" y="7.21745" width="48.91016" height="365.05208" style="fill: none;stroke: #fff;stroke-miterlimit: 10"/>
</svg>
