<?xml version="1.0" encoding="UTF-8" standalone="no"?>
<!DOCTYPE svg PUBLIC "-//W3C//DTD SVG 1.1//EN" "http://www.w3.org/Graphics/SVG/1.1/DTD/svg11.dtd">
<svg width="60px" height="380px" version="1.1" xmlns="http://www.w3.org/2000/svg" xmlns:xlink="http://www.w3.org/1999/xlink" xml:space="preserve" xmlns:serif="http://www.serif.com/" style="fill-rule:evenodd;clip-rule:evenodd;stroke-linecap:round;stroke-miterlimit:10;">
    <rect id="path33453" x="0" y="0" width="60" height="380" style="fill:rgb(44,45,48);fill-rule:nonzero;"/>
    <g id="FUN">
        <g>
            <g>
                <path d="M45.4,223.8l2.7,-28.4" style="fill:none;stroke:rgb(79,80,86);stroke-width:0.75px;"/>
                <path d="M63,196.6l-9.6,-2.2" style="fill:none;stroke:rgb(79,80,86);stroke-width:0.75px;"/>
                <path d="M48.1,195.4l5.3,-1" style="fill:none;stroke:rgb(79,80,86);stroke-width:0.75px;"/>
                <path d="M15.2,144.9l32.9,50.5" style="fill:none;stroke:rgb(79,80,86);stroke-width:0.75px;"/>
                <path d="M3.7,140.5l11.5,4.4" style="fill:none;stroke:rgb(79,80,86);stroke-width:0.75px;"/>
                <path d="M-7.8,167.7l11.5,-27.2" style="fill:none;stroke:rgb(79,80,86);stroke-width:0.75px;"/>
                <path d="M29.6,118.9l-25.9,21.6" style="fill:none;stroke:rgb(79,80,86);stroke-width:0.75px;"/>
                <path d="M37.4,132.6l-7.8,-13.7" style="fill:none;stroke:rgb(79,80,86);stroke-width:0.75px;"/>
                <path d="M47.3,139.8l-9.9,-7.2" style="fill:none;stroke:rgb(79,80,86);stroke-width:0.75px;"/>
                <path d="M74.1,132.7l-26.8,7.1" style="fill:none;stroke:rgb(79,80,86);stroke-width:0.75px;"/>
                <path d="M70,88.3l-40.4,30.6" style="fill:none;stroke:rgb(79,80,86);stroke-width:0.75px;"/>
                <path d="M-3.1,139.1l6.8,1.4" style="fill:none;stroke:rgb(79,80,86);stroke-width:0.75px;"/>
            </g>
            <g>
                <circle cx="47.3" cy="139.8" r="1.5" style="fill:rgb(44,45,48);stroke:rgb(79,80,86);stroke-width:0.75px;"/>
                <circle cx="37.4" cy="132.6" r="2" style="fill:rgb(44,45,48);stroke:rgb(79,80,86);stroke-width:0.75px;"/>
                <circle cx="29.6" cy="118.9" r="2.9" style="fill:rgb(44,45,48);stroke:rgb(79,80,86);stroke-width:0.75px;"/>
                <circle cx="15.2" cy="144.9" r="2" style="fill:rgb(44,45,48);stroke:rgb(79,80,86);stroke-width:0.75px;"/>
                <circle cx="3.8" cy="140.3" r="2.6" style="fill:rgb(44,45,48);stroke:rgb(79,80,86);stroke-width:0.75px;"/>
                <circle cx="26.2" cy="161.7" r="2" style="fill:rgb(44,45,48);stroke:rgb(79,80,86);stroke-width:0.75px;"/>
                <circle cx="47.8" cy="195.4" r="1.4" style="fill:rgb(44,45,48);stroke:rgb(79,80,86);stroke-width:0.75px;"/>
                <circle cx="53.4" cy="194.4" r="1.7" style="fill:rgb(44,45,48);stroke:rgb(79,80,86);stroke-width:0.75px;"/>
                <circle cx="62.3" cy="196.6" r="2" style="fill:rgb(44,45,48);stroke:rgb(79,80,86);stroke-width:0.75px;"/>
                <circle cx="45.4" cy="223.8" r="2" style="fill:rgb(44,45,48);stroke:rgb(79,80,86);stroke-width:0.75px;"/>
            </g>
        </g>
        <g>
            <g>
                <path d="M33.3,275.3l-10.9,26.4" style="fill:none;stroke:rgb(79,80,86);stroke-width:0.75px;"/>
                <path d="M22.4,301.7l-5.4,-0.6" style="fill:none;stroke:rgb(79,80,86);stroke-width:0.75px;"/>
                <path d="M39.1,359.7l-16.7,-58" style="fill:none;stroke:rgb(79,80,86);stroke-width:0.75px;"/>
                <path d="M48.7,367.2l-9.6,-7.5" style="fill:none;stroke:rgb(79,80,86);stroke-width:0.75px;"/>
                <path d="M67.7,344.6l-19,22.6" style="fill:none;stroke:rgb(79,80,86);stroke-width:0.75px;"/>
                <path d="M17.6,380.2l31.1,-13" style="fill:none;stroke:rgb(79,80,86);stroke-width:0.75px;"/>
                <path d="M14.2,365l3.4,15.2" style="fill:none;stroke:rgb(79,80,86);stroke-width:0.75px;"/>
                <path d="M6.8,355.1l7.4,9.9" style="fill:none;stroke:rgb(79,80,86);stroke-width:0.75px;"/>
                <path d="M-20.8,354l27.6,1.1" style="fill:none;stroke:rgb(79,80,86);stroke-width:0.75px;"/>
                <path d="M-29.9,397.7l47.5,-17.5" style="fill:none;stroke:rgb(79,80,86);stroke-width:0.75px;"/>
                <path d="M54.8,370.5l-6.1,-3.3" style="fill:none;stroke:rgb(79,80,86);stroke-width:0.75px;"/>
                <path d="M68.1,386.6l-13.3,-16.1" style="fill:none;stroke:rgb(79,80,86);stroke-width:0.75px;"/>
            </g>
            <g>
                <circle cx="6.8" cy="355.1" r="1.5" style="fill:rgb(44,45,48);stroke:rgb(79,80,86);stroke-width:0.75px;"/>
                <circle cx="14.2" cy="365" r="2" style="fill:rgb(44,45,48);stroke:rgb(79,80,86);stroke-width:0.75px;"/>
                <circle cx="17.6" cy="380.2" r="2.9" style="fill:rgb(44,45,48);stroke:rgb(79,80,86);stroke-width:0.75px;"/>
                <circle cx="39.1" cy="359.7" r="2" style="fill:rgb(44,45,48);stroke:rgb(79,80,86);stroke-width:0.75px;"/>
                <circle cx="48.6" cy="367.3" r="2.6" style="fill:rgb(44,45,48);stroke:rgb(79,80,86);stroke-width:0.75px;"/>
                <circle cx="55.2" cy="370.7" r="2" style="fill:rgb(44,45,48);stroke:rgb(79,80,86);stroke-width:0.75px;"/>
                <circle cx="33.5" cy="340.3" r="2" style="fill:rgb(44,45,48);stroke:rgb(79,80,86);stroke-width:0.75px;"/>
                <circle cx="22.7" cy="301.8" r="1.4" style="fill:rgb(44,45,48);stroke:rgb(79,80,86);stroke-width:0.75px;"/>
                <g transform="matrix(0.999948,-0.0102001,0.0102001,0.999948,-3.07034,0.18906)">
                    <circle cx="16.999" cy="301.101" r="1.7" style="fill:rgb(44,45,48);stroke:rgb(79,80,86);stroke-width:0.75px;"/>
                </g>
                <circle cx="33.3" cy="275.3" r="2" style="fill:rgb(44,45,48);stroke:rgb(79,80,86);stroke-width:0.75px;"/>
            </g>
        </g>
    </g>
    <g id="PRINT">
        <g>
            <path d="M36.9,350.9l12.3,-12.4" style="fill:none;stroke:rgb(158,161,168);stroke-width:1px;"/>
            <g>
                <circle cx="49.3" cy="338.4" r="2.3" style="fill:rgb(158,161,168);stroke:rgb(158,161,168);stroke-width:1px;"/>
                <circle cx="49.3" cy="338.4" r="0.8" style="fill:rgb(44,45,48);"/>
            </g>
        </g>
        <g>
            <path d="M22,314.8l-12.4,-12.4" style="fill:none;stroke:rgb(158,161,168);stroke-width:1px;"/>
            <g>
                <circle cx="9.5" cy="302.3" r="2.3" style="fill:rgb(158,161,168);stroke:rgb(158,161,168);stroke-width:1px;"/>
                <circle cx="9.5" cy="302.3" r="0.8" style="fill:rgb(44,45,48);"/>
            </g>
        </g>
        <g>
            <path d="M37.9,278.7l12.3,-12.3" style="fill:none;stroke:rgb(158,161,168);stroke-width:1px;"/>
            <g>
                <circle cx="50.3" cy="266.3" r="2.3" style="fill:rgb(158,161,168);stroke:rgb(158,161,168);stroke-width:1px;"/>
                <circle cx="50.3" cy="266.3" r="0.8" style="fill:rgb(44,45,48);"/>
            </g>
        </g>
        <g>
            <path d="M9.6,370.2c-1.975,0 -3.6,1.625 -3.6,3.6c0,1.975 1.625,3.6 3.6,3.6c1.975,0 3.6,-1.625 3.6,-3.6c0,-0.005 0,-0.01 0,-0.015c0,-1.967 -1.618,-3.585 -3.585,-3.585c-0.005,0 -0.01,0 -0.015,0Zm1.2,6c-0.328,0.293 -0.762,0.438 -1.2,0.4c-0.309,-0.019 -0.612,-0.086 -0.9,-0.2c-0.287,-0.087 -0.513,-0.313 -0.6,-0.6c-0.17,-0.23 -0.242,-0.517 -0.2,-0.8l0.7,0c-0.008,0.295 0.1,0.583 0.3,0.8c0.207,0.216 0.502,0.327 0.8,0.3c0.247,-0.006 0.488,-0.075 0.7,-0.2c0.111,-0.182 0.179,-0.388 0.2,-0.6c0.013,-0.218 -0.058,-0.433 -0.2,-0.6c-0.231,-0.195 -0.506,-0.332 -0.8,-0.4c-0.316,-0.095 -0.618,-0.229 -0.9,-0.4c-0.185,-0.118 -0.325,-0.294 -0.4,-0.5c-0.175,-0.27 -0.278,-0.579 -0.3,-0.9c-0.039,-0.378 0.111,-0.753 0.4,-1c0.297,-0.276 0.695,-0.421 1.1,-0.4c0.278,0.007 0.551,0.075 0.8,0.2c0.248,0.146 0.454,0.352 0.6,0.6c0.125,0.249 0.193,0.522 0.2,0.8l-0.7,0c-0.007,-0.278 -0.075,-0.551 -0.2,-0.8c-0.165,-0.215 -0.431,-0.329 -0.7,-0.3c-0.218,-0.013 -0.433,0.058 -0.6,0.2c-0.266,0.355 -0.266,0.845 0,1.2c0.22,0.211 0.499,0.351 0.8,0.4c0.399,0.134 0.771,0.337 1.1,0.6c0.203,0.293 0.308,0.643 0.3,1c0.084,0.424 -0.026,0.865 -0.3,1.2Z" style="fill:rgb(158,161,168);fill-rule:nonzero;"/>
            <path d="M16.8,371.7l-1.4,0l0,4.8l-0.7,0l0,-4.8l-1.4,0l0,-0.6l3.5,0l0,0.6Z" style="fill:rgb(158,161,168);fill-rule:nonzero;"/>
            <path d="M20.2,374l-1.9,0l0,1.9l2.2,0l0,0.6l-2.9,0l0,-5.4l2.8,0l0,0.6l-2.2,0l0,1.7l1.9,0c0.1,0 0.1,0.6 0.1,0.6Z" style="fill:rgb(158,161,168);fill-rule:nonzero;"/>
            <path d="M22,375.9l2.1,0l0,0.6l-2.8,0l0,-5.4l0.7,0l0,4.8Z" style="fill:rgb(158,161,168);fill-rule:nonzero;"/>
            <path d="M25.6,375.9l2.1,0l0,0.6l-2.8,0l0,-5.4l0.7,0l0,4.8Z" style="fill:rgb(158,161,168);fill-rule:nonzero;"/>
            <path d="M31.1,375.1l-1.8,0l-0.4,1.4l-0.7,0l1.7,-5.4l0.6,0l1.7,5.4l-0.7,0l-0.4,-1.4Zm-1.7,-0.6l1.5,0l-0.7,-2.4l-0.8,2.4Z" style="fill:rgb(158,161,168);fill-rule:nonzero;"/>
            <path d="M34.5,374.3l-0.9,0l0,2.2l-0.7,0l0,-5.4l1.5,0c0.066,-0.009 0.133,-0.014 0.2,-0.014c0.776,0 1.414,0.638 1.414,1.414c0,0.067 -0.005,0.134 -0.014,0.2c-0.019,0.309 -0.086,0.612 -0.2,0.9c-0.1,0.2 -0.4,0.4 -0.6,0.6l1,2.3l-0.7,0l-1,-2.2Zm-0.9,-0.6l0.8,0c0.543,-0.013 0.987,-0.457 1,-1c0,-0.7 -0.3,-1 -0.9,-1l-0.8,0l-0.1,2Z" style="fill:rgb(158,161,168);fill-rule:nonzero;"/>
            <path d="M39.5,374l-1.9,0l0,1.9l2.2,0l0,0.6l-2.9,0l0,-5.4l2.8,0l0,0.6l-2.2,0l0,1.7l1.9,0c0.1,0 0.1,0.6 0.1,0.6Z" style="fill:rgb(158,161,168);fill-rule:nonzero;"/>
        </g>
        <g>
            <path d="M12.7,14.7l34.8,0c0.012,0 0.025,0 0.037,0c1.242,0 2.263,1.021 2.263,2.263c0,0.012 0,0.025 0,0.037l0,11.3c0,0.012 0,0.025 0,0.037c0,1.242 -1.021,2.263 -2.263,2.263c-0.012,0 -0.025,0 -0.037,0l-34.8,0c-0.012,0 -0.025,0 -0.037,0c-1.242,0 -2.263,-1.021 -2.263,-2.263c0,-0.012 0,-0.025 0,-0.037l0,-11.3c0.014,-1.256 1.044,-2.286 2.3,-2.3Z" style="fill:rgb(158,161,168);fill-rule:nonzero;"/>
            <g>
                <path d="M32.7,19.4l0,5.6l1.9,0l0,0.9l-2.9,0l0,-6.5l1,0Z" style="fill:rgb(44,45,48);fill-rule:nonzero;"/>
                <path d="M35.8,19.4c0.329,0 0.6,0.271 0.6,0.6c0,0.329 -0.271,0.6 -0.6,0.6c-0.329,0 -0.6,-0.271 -0.6,-0.6c0,-0.3 0.3,-0.5 0.6,-0.6Zm0.5,2.4l0,4.1l-1,0l0,-4.1l1,0Z" style="fill:rgb(44,45,48);fill-rule:nonzero;"/>
                <path d="M37.2,21.8l1,0l0,0.4c0.287,-0.303 0.682,-0.483 1.1,-0.5c0.475,-0.012 0.925,0.213 1.2,0.6c0.204,0.33 0.308,0.712 0.3,1.1l0,2.5l-1,0l0,-2.3c0,-1 -0.4,-1.1 -0.8,-1.1c-0.4,0 -0.9,0.1 -0.9,1.4l0,2l-1,0l0.1,-4.1Z" style="fill:rgb(44,45,48);fill-rule:nonzero;"/>
                <path d="M42.4,18.7l0,4.4l1.3,-1.4l1.3,0l-1.8,1.7l1.9,2.4l-1.2,0l-1.4,-1.8l-0.2,0.2l0,1.6l-1,0l0,-7.1l1.1,0Z" style="fill:rgb(44,45,48);fill-rule:nonzero;"/>
                <path d="M22.6,19.4l-0.1,0.8c0,0.1 0,0.1 0.1,0.1l6.3,0c0.1,0 0.1,0 0.1,-0.1l0,-0.7c0,-0.1 0,-0.1 -0.1,-0.1l-6.3,0Zm0,1.8c-0.1,0 -0.1,0.1 0,0l-0.1,0.8c0,0.1 0,0.1 0.1,0.1l6.3,0c0.1,0 0.1,0 0.1,-0.1l0,-0.7c0,-0.1 0,-0.1 -0.1,-0.1l-6.3,0Zm0,1.9c-0.1,0 -0.1,0.1 0,0l-0.1,0.8c0,0.1 0,0.1 0.1,0.1l6.3,0c0.1,0 0.1,0 0.1,-0.1l0,-0.7c0,-0.1 0,-0.1 -0.1,-0.1l-6.3,0Zm0,1.9l-0.1,0.8c0,0.1 0,0.1 0.1,0.1l6.3,0c0.1,0 0.1,0 0.1,-0.1l0,-0.7c0,-0.1 0,-0.1 -0.1,-0.1l-6.3,0Zm-1,-5.5c0,-0.1 -0.1,-0.1 0,0l-0.8,-0.1c-0.1,0 -0.1,0 -0.1,0.1l0,6.3c0,0.1 0,0.1 0.1,0.1l0.7,0c0.1,0 0.1,0 0.1,-0.1l0,-6.3Zm-1.9,0l-0.8,-0.1c-0.1,0 -0.1,0 -0.1,0.1l0,6.3c0,0.1 0,0.1 0.1,0.1l0.7,0c0.1,0 0.1,0 0.1,-0.1l0,-6.3Zm-1.9,0l-0.8,-0.1c-0.1,0 -0.1,0 -0.1,0.1l0,6.3c0,0.1 0,0.1 0.1,0.1l0.7,0c0.1,0 0.1,0 0.1,-0.1l0,-6.3Zm-1.8,0c0,-0.1 -0.1,-0.1 0,0l-0.8,-0.1c-0.1,0 -0.1,0 -0.1,0.1l0,6.3c0,0.1 0,0.1 0.1,0.1l0.7,0c0.1,0 0.1,0 0.1,-0.1l0,-6.3Z" style="fill:rgb(44,45,48);fill-rule:nonzero;"/>
            </g>
        </g>
        <g transform="matrix(1,0,0,1,0,-63)">
            <path d="M17.5,147.6c-3.367,-3.367 -5.261,-7.938 -5.261,-12.7c0,-9.853 8.108,-17.961 17.961,-17.961c9.853,0 17.961,8.108 17.961,17.961c0,4.762 -1.894,9.333 -5.261,12.7" style="fill:rgb(44,45,48);fill-rule:nonzero;stroke:rgb(158,161,168);stroke-width:1px;"/>
            <g>
                <circle cx="30" cy="116.95" r="2.3" style="fill:rgb(158,161,168);"/>
                <path d="M30,115.45c0.823,0 1.5,0.677 1.5,1.5c0,0.823 -0.677,1.5 -1.5,1.5c-0.823,0 -1.5,-0.677 -1.5,-1.5c0.02,-0.815 0.685,-1.48 1.5,-1.5m0,-1.5c-1.646,0 -3,1.354 -3,3c0,1.646 1.354,3 3,3c1.646,0 3,-1.354 3,-3c0,-0.018 0,-0.036 0,-0.054c0,-1.616 -1.33,-2.946 -2.946,-2.946c-0.018,0 -0.036,0 -0.054,0Z" style="fill:rgb(44,45,48);fill-rule:nonzero;"/>
            </g>
            <circle cx="30.2" cy="134.9" r="18" style="fill:none;"/>
        </g>
        <g transform="matrix(1,0,0,1,0,-63)">
            <path d="M17.5,195.6c-3.367,-3.367 -5.261,-7.938 -5.261,-12.7c0,-9.853 8.108,-17.961 17.961,-17.961c9.853,0 17.961,8.108 17.961,17.961c0,4.762 -1.894,9.333 -5.261,12.7" style="fill:rgb(44,45,48);fill-rule:nonzero;stroke:rgb(158,161,168);stroke-width:1px;"/>
            <g>
                <circle cx="17.8" cy="195.6" r="2.3" style="fill:rgb(158,161,168);"/>
                <path d="M17.8,194.1c0.823,0 1.5,0.677 1.5,1.5c0,0.823 -0.677,1.5 -1.5,1.5c-0.823,0 -1.5,-0.677 -1.5,-1.5c0.02,-0.815 0.685,-1.48 1.5,-1.5m0,-1.5c-1.646,0 -3,1.354 -3,3c0,1.646 1.354,3 3,3c1.646,0 3,-1.354 3,-3c0,-0.018 0,-0.036 0,-0.054c0,-1.616 -1.33,-2.946 -2.946,-2.946c-0.018,0 -0.036,0 -0.054,0Z" style="fill:rgb(44,45,48);fill-rule:nonzero;"/>
            </g>
            <circle cx="30.2" cy="182.9" r="18" style="fill:none;"/>
        </g>
        <g transform="matrix(1,0,0,1,0,-63)">
            <path d="M15.5,206l0,-0.3l1,0l0,0.3c0,0.329 0.271,0.6 0.6,0.6c0.329,0 0.6,-0.271 0.6,-0.6c0,0 0,-0.6 0,-0.6c0.004,-0.025 0.005,-0.05 0.005,-0.075c0,-0.291 -0.239,-0.53 -0.53,-0.53c-0.025,0 -0.05,0.001 -0.075,0.005c-0.045,0.004 -0.089,0.006 -0.134,0.006c-0.808,0 -1.472,-0.664 -1.472,-1.472c0,-0.045 0.002,-0.089 0.006,-0.134l0,-0.8c-0.004,-0.045 -0.006,-0.089 -0.006,-0.134c0,-0.808 0.664,-1.472 1.472,-1.472c0.045,0 0.089,0.002 0.134,0.006c0.045,-0.004 0.089,-0.006 0.134,-0.006c0.808,0 1.472,0.664 1.472,1.472c0,0.045 -0.002,0.089 -0.006,0.134l0,0.3l-1,0l0,-0.3c0,-0.329 -0.271,-0.6 -0.6,-0.6c-0.329,0 -0.6,0.271 -0.6,0.6c0,0 0,0.8 0,0.8c-0.004,0.025 -0.005,0.05 -0.005,0.075c0,0.291 0.239,0.53 0.53,0.53c0.025,0 0.05,-0.001 0.075,-0.005c0.045,-0.004 0.089,-0.006 0.134,-0.006c0.808,0 1.472,0.664 1.472,1.472c0,0.045 -0.002,0.089 -0.006,0.134l0,0.6c0.004,0.045 0.006,0.089 0.006,0.134c0,0.808 -0.664,1.472 -1.472,1.472c-0.045,0 -0.089,-0.002 -0.134,-0.006c-0.045,0.004 -0.091,0.006 -0.136,0.006c-0.807,0 -1.47,-0.663 -1.47,-1.47c0,-0.045 0.002,-0.091 0.006,-0.136Z" style="fill:rgb(158,161,168);fill-rule:nonzero;"/>
            <path d="M20.3,201l1,0l0,3.3l1,0l0,-3.3l1,0l0,6.5l-1,0l0,-2.2l-1,0l0,2.2l-1,0l0,-6.5Z" style="fill:rgb(158,161,168);fill-rule:nonzero;"/>
            <path d="M28.2,206c0.004,0.045 0.006,0.089 0.006,0.134c0,0.808 -0.664,1.472 -1.472,1.472c-0.045,0 -0.089,-0.002 -0.134,-0.006c-0.045,0.004 -0.089,0.006 -0.134,0.006c-0.808,0 -1.472,-0.664 -1.472,-1.472c0,-0.045 0.002,-0.089 0.006,-0.134l0,-5l1,0l0,5.1c0,0.329 0.271,0.6 0.6,0.6c0.329,0 0.6,-0.271 0.6,-0.6c0,0 0,-5.1 0,-5.1l1,0l0,5Z" style="fill:rgb(158,161,168);fill-rule:nonzero;"/>
            <path d="M30,201l2.7,0l0,1l-1.7,0l0,2.3l1.4,0l0,1l-1.4,0l0,2.2l-1,0l0,-6.5Z" style="fill:rgb(158,161,168);fill-rule:nonzero;"/>
            <path d="M34,201l2.7,0l0,1l-1.7,0l0,2.3l1.4,0l0,1l-1.4,0l0,2.2l-1,0l0,-6.5Z" style="fill:rgb(158,161,168);fill-rule:nonzero;"/>
            <path d="M39,206.5l1.5,0l0,1l-2.5,0l0,-6.5l1,0l0,5.5Z" style="fill:rgb(158,161,168);fill-rule:nonzero;"/>
            <path d="M44.4,202l-1.7,0l0,1.6l1.4,0l0,1l-1.4,0l0,1.9l1.7,0l0,1l-2.7,0l0,-6.5l2.7,0l0,1Z" style="fill:rgb(158,161,168);fill-rule:nonzero;"/>
        </g>
        <g transform="matrix(1,0,0,1,0,-63)">
            <path d="M19.9,248.9c0.312,0.192 0.502,0.534 0.5,0.9l0,1.9l-1,0l0,-1.9c0.001,-0.009 0.001,-0.019 0.001,-0.028c0,-0.26 -0.213,-0.473 -0.473,-0.473c-0.009,0 -0.019,0 -0.028,0.001l-0.6,0l0,2.4l-1,0l0,-6.5l1.6,0c0.021,-0.001 0.041,-0.001 0.062,-0.001c0.793,0 1.446,0.653 1.446,1.446c0,0.052 -0.002,0.103 -0.008,0.155l0,1c-0.017,0.418 -0.197,0.813 -0.5,1.1Zm-0.5,-2.2c0.001,-0.009 0.001,-0.019 0.001,-0.028c0,-0.26 -0.213,-0.473 -0.473,-0.473c-0.009,0 -0.019,0 -0.028,0.001l-0.6,0l0,2.1l0.6,0c0.009,0.001 0.019,0.001 0.028,0.001c0.26,0 0.473,-0.213 0.473,-0.473c0,-0.009 0,-0.019 -0.001,-0.028l0,-1.1Z" style="fill:rgb(158,161,168);fill-rule:nonzero;"/>
            <path d="M24.7,246.1l-1.7,0l0,1.6l1.4,0l0,1l-1.4,0l0,1.9l1.7,0l0,1l-2.7,0l0,-6.5l2.7,0l0,1Z" style="fill:rgb(158,161,168);fill-rule:nonzero;"/>
            <path d="M26,250.2l0,-0.3l1,0l0,0.3c0,0.329 0.271,0.6 0.6,0.6c0.329,0 0.6,-0.271 0.6,-0.6c0,0 0,-0.6 0,-0.6c0.004,-0.025 0.005,-0.05 0.005,-0.075c0,-0.291 -0.239,-0.53 -0.53,-0.53c-0.025,0 -0.05,0.001 -0.075,0.005c-0.045,0.004 -0.089,0.006 -0.134,0.006c-0.808,0 -1.472,-0.664 -1.472,-1.472c0,-0.045 0.002,-0.089 0.006,-0.134l0,-0.8c0,-0.878 0.722,-1.6 1.6,-1.6c0.878,0 1.6,0.722 1.6,1.6c0,0 0,0.3 0,0.3l-1,0l0,-0.3c0,-0.329 -0.271,-0.6 -0.6,-0.6c-0.329,0 -0.6,0.271 -0.6,0.6c0,0 0,0.8 0,0.8c-0.004,0.025 -0.005,0.05 -0.005,0.075c0,0.291 0.239,0.53 0.53,0.53c0.025,0 0.05,-0.001 0.075,-0.005c0.045,-0.004 0.089,-0.006 0.134,-0.006c0.808,0 1.472,0.664 1.472,1.472c0,0.045 -0.002,0.089 -0.006,0.134l0,0.6c0.004,0.045 0.006,0.089 0.006,0.134c0,0.808 -0.664,1.472 -1.472,1.472c-0.045,0 -0.089,-0.002 -0.134,-0.006c-0.027,0.001 -0.054,0.002 -0.08,0.002c-0.835,0 -1.522,-0.687 -1.522,-1.522c0,-0.026 0.001,-0.053 0.002,-0.08Z" style="fill:rgb(158,161,168);fill-rule:nonzero;"/>
            <path d="M33.9,245.1l-1.4,3.4l0,3.1l-1,0l0,-3.1l-1.4,-3.4l1,0l0.9,2.4l0.9,-2.4l1,0Z" style="fill:rgb(158,161,168);fill-rule:nonzero;"/>
            <path d="M38.2,245.1l0,6.5l-0.8,0l-1.4,-3.8l0,3.8l-1,0l0,-6.5l0.8,0l1.4,3.8l0,-3.8l1,0Z" style="fill:rgb(158,161,168);fill-rule:nonzero;"/>
            <path d="M43,250.2c0,0.878 -0.722,1.6 -1.6,1.6c-0.878,0 -1.6,-0.722 -1.6,-1.6c0,0 0,-3.6 0,-3.6c0,-0.878 0.722,-1.6 1.6,-1.6c0.878,0 1.6,0.722 1.6,1.6c0,0 0,0.3 0,0.3l-1,0l0,-0.3c0,-0.329 -0.271,-0.6 -0.6,-0.6c-0.329,0 -0.6,0.271 -0.6,0.6l0,3.6c0,0.329 0.271,0.6 0.6,0.6c0.329,0 0.6,-0.271 0.6,-0.6l0,-0.3l1,0l0,0.3Z" style="fill:rgb(158,161,168);fill-rule:nonzero;"/>
        </g>
        <g transform="matrix(1,0,0,1,0,-63)">
            <path d="M18.2,159l0,-3.6c-0.004,-0.045 -0.006,-0.089 -0.006,-0.134c0,-0.808 0.664,-1.472 1.472,-1.472c0.045,0 0.089,0.002 0.134,0.006c0.045,-0.004 0.089,-0.006 0.134,-0.006c0.808,0 1.472,0.664 1.472,1.472c0,0.045 -0.002,0.089 -0.006,0.134l0,3.6c0.004,0.045 0.006,0.089 0.006,0.134c0,0.808 -0.664,1.472 -1.472,1.472c-0.045,0 -0.089,-0.002 -0.134,-0.006c-0.045,0.004 -0.089,0.006 -0.134,0.006c-0.808,0 -1.472,-0.664 -1.472,-1.472c0,-0.045 0.002,-0.089 0.006,-0.134Zm2.1,0l0,-3.6c0,-0.329 -0.271,-0.6 -0.6,-0.6c-0.329,0 -0.6,0.271 -0.6,0.6c0,0 0,3.6 0,3.6c0,0.329 0.271,0.6 0.6,0.6c0.329,0 0.6,-0.271 0.6,-0.6c0,0 0,0 0,0Z" style="fill:rgb(158,161,168);fill-rule:nonzero;"/>
            <path d="M23,153.9l2.7,0l0,1l-1.7,0l0,2.3l1.4,0l0,1l-1.4,0l0,2.2l-1,0l0,-6.5Z" style="fill:rgb(158,161,168);fill-rule:nonzero;"/>
            <path d="M27.1,153.9l2.7,0l0,1l-1.7,0l0,2.3l1.4,0l0,1l-1.4,0l0,2.2l-1,0l0,-6.5Z" style="fill:rgb(158,161,168);fill-rule:nonzero;"/>
            <path d="M30.8,159l0,-0.3l1,0l0,0.3c0,0.329 0.271,0.6 0.6,0.6c0.329,0 0.6,-0.271 0.6,-0.6c0,0 0,-0.6 0,-0.6c0.004,-0.025 0.005,-0.05 0.005,-0.075c0,-0.291 -0.239,-0.53 -0.53,-0.53c-0.025,0 -0.05,0.001 -0.075,0.005c-0.045,0.004 -0.089,0.006 -0.134,0.006c-0.808,0 -1.472,-0.664 -1.472,-1.472c0,-0.045 0.002,-0.089 0.006,-0.134l0,-0.8c0,-0.878 0.722,-1.6 1.6,-1.6c0.878,0 1.6,0.722 1.6,1.6c0,0 0,0.3 0,0.3l-1,0l0,-0.3c0,-0.329 -0.271,-0.6 -0.6,-0.6c-0.329,0 -0.6,0.271 -0.6,0.6c0,0 0,0.8 0,0.8c-0.004,0.025 -0.005,0.05 -0.005,0.075c0,0.291 0.239,0.53 0.53,0.53c0.025,0 0.05,-0.001 0.075,-0.005c0.045,-0.004 0.089,-0.006 0.134,-0.006c0.808,0 1.472,0.664 1.472,1.472c0,0.045 -0.002,0.089 -0.006,0.134l0,0.6c0.004,0.045 0.006,0.089 0.006,0.134c0,0.808 -0.664,1.472 -1.472,1.472c-0.045,0 -0.089,-0.002 -0.134,-0.006c-0.027,0.001 -0.054,0.002 -0.08,0.002c-0.835,0 -1.522,-0.687 -1.522,-1.522c0,-0.026 0.001,-0.053 0.002,-0.08Z" style="fill:rgb(158,161,168);fill-rule:nonzero;"/>
            <path d="M38.2,155l-1.7,0l0,1.6l1.5,0l0,1l-1.4,0l0,1.9l1.7,0l0,1l-2.7,0l0,-6.5l2.7,0l0,1l-0.1,0Z" style="fill:rgb(158,161,168);fill-rule:nonzero;"/>
            <path d="M40.2,155l-1,0l0,-1l3,0l0,1l-1,0l0,5.5l-1,0l0,-5.5Z" style="fill:rgb(158,161,168);fill-rule:nonzero;"/>
        </g>
        <g>
            <path d="M37.3,331.2c0.312,0.192 0.502,0.534 0.5,0.9l0,1.9l-1,0l0,-1.9c0.001,-0.009 0.001,-0.019 0.001,-0.028c0,-0.26 -0.213,-0.473 -0.473,-0.473c-0.009,0 -0.019,0 -0.028,0.001l-0.6,0l0,2.4l-1,0l0,-6.5l1.6,0c0.021,-0.001 0.041,-0.001 0.062,-0.001c0.793,0 1.446,0.653 1.446,1.446c0,0.052 -0.002,0.103 -0.008,0.155l0,1c-0.017,0.418 -0.197,0.813 -0.5,1.1Zm-0.6,-2.2c0.001,-0.009 0.001,-0.019 0.001,-0.028c0,-0.26 -0.213,-0.473 -0.473,-0.473c-0.009,0 -0.019,0 -0.028,0.001l-0.6,0l0,2.1l0.6,0c0.009,0.001 0.019,0.001 0.028,0.001c0.26,0 0.473,-0.213 0.473,-0.473c0,-0.009 0,-0.019 -0.001,-0.028l0,-1.1Z" style="fill:rgb(158,161,168);fill-rule:nonzero;"/>
            <path d="M42.1,328.4l-1.7,0l0,1.6l1.4,0l0,1l-1.4,0l0,1.9l1.7,0l0,1l-2.7,0l0,-6.5l2.7,0l0,1Z" style="fill:rgb(158,161,168);fill-rule:nonzero;"/>
            <path d="M43.4,332.4l0,-0.3l1,0l0,0.3c0,0.329 0.271,0.6 0.6,0.6c0.329,0 0.6,-0.271 0.6,-0.6l0,-0.6c0.004,-0.025 0.005,-0.05 0.005,-0.075c0,-0.291 -0.239,-0.53 -0.53,-0.53c-0.025,0 -0.05,0.001 -0.075,0.005c-0.045,0.004 -0.089,0.006 -0.134,0.006c-0.808,0 -1.472,-0.664 -1.472,-1.472c0,-0.045 0.002,-0.089 0.006,-0.134l0,-0.8c0,-0.878 0.722,-1.6 1.6,-1.6c0.878,0 1.6,0.722 1.6,1.6c0,0 0,0.3 0,0.3l-1,0l0,-0.3c0,-0.329 -0.271,-0.6 -0.6,-0.6c-0.329,0 -0.6,0.271 -0.6,0.6l0,0.8c-0.004,0.025 -0.005,0.05 -0.005,0.075c0,0.291 0.239,0.53 0.53,0.53c0.025,0 0.05,-0.001 0.075,-0.005c0.045,-0.004 0.089,-0.006 0.134,-0.006c0.808,0 1.472,0.664 1.472,1.472c0,0.045 -0.002,0.089 -0.006,0.134l0,0.6c0.004,0.045 0.006,0.089 0.006,0.134c0,0.808 -0.664,1.472 -1.472,1.472c-0.045,0 -0.089,-0.002 -0.134,-0.006c-0.061,0.008 -0.123,0.012 -0.185,0.012c-0.783,0 -1.427,-0.644 -1.427,-1.427c0,-0.062 0.004,-0.124 0.012,-0.185Z" style="fill:rgb(158,161,168);fill-rule:nonzero;"/>
            <path d="M50.8,328.4l-1.7,0l0,1.6l1.4,0l0,1l-1.4,0l0,1.9l1.7,0l0,1l-2.7,0l0,-6.5l2.7,0l0,1Z" style="fill:rgb(158,161,168);fill-rule:nonzero;"/>
            <path d="M52.7,328.4l-1,0l0,-1l3,0l0,1l-1,0l0,5.5l-1,0l0,-5.5Z" style="fill:rgb(158,161,168);fill-rule:nonzero;"/>
        </g>
        <g>
            <path d="M8.4,290.8l1,0l-2.3,7.2l-1,0l2.3,-7.2Z" style="fill:rgb(158,161,168);fill-rule:nonzero;"/>
            <path d="M13.8,295.4l0,1l-0.5,0l0,1.2l-1,0l0,-1.2l-2.3,0l0,-0.9l2.3,-4.4l0.9,0l0,4.3l0.6,0Zm-1.6,-2.4l-1.2,2.3l1.2,0l0,-2.3Z" style="fill:rgb(158,161,168);fill-rule:nonzero;"/>
        </g>
        <g>
            <path d="M47.1,255.2l1,0l-2.3,7.2l-1,0l2.3,-7.2Z" style="fill:rgb(158,161,168);fill-rule:nonzero;"/>
            <path d="M49.9,260.9l0,0.1l2.1,0l0,1l-3.2,0l0,-0.9c0,-2.1 2.2,-2.2 2.2,-3.3l0,-0.8c0,-0.329 -0.271,-0.6 -0.6,-0.6c-0.329,0 -0.6,0.271 -0.6,0.6l0,0.3l-1,0l0,-0.3c0,-0.878 0.722,-1.6 1.6,-1.6c0.878,0 1.6,0.722 1.6,1.6c0,0 0,0.8 0,0.8c0.1,1.5 -2.1,1.8 -2.1,3.1Z" style="fill:rgb(158,161,168);fill-rule:nonzero;"/>
        </g>
    </g>
</svg>
