<svg id="Layer_1" data-name="Layer 1" xmlns="http://www.w3.org/2000/svg" width="60" height="380" viewBox="0 0 60 380">
  <title>Link</title>
  <rect width="60" height="380" style="fill: #ebebeb"/>
  <g>
    <g>
      <circle cx="15.8" cy="354.44678" r="5.29999" style="fill: #010101"/>
      <path d="M15.8,354.84677a2.285,2.285,0,0,1-1.2-.8,1.594,1.594,0,0,1-.4-1.2,1.901,1.901,0,0,1,.5-1.3,1.65609,1.65609,0,0,1,1.2-.5,1.61287,1.61287,0,0,1,.9.3,1.34448,1.34448,0,0,1,.6.7,2.95847,2.95847,0,0,1,.2,1h-.7a1.22229,1.22229,0,0,0-.3-.9,1.10088,1.10088,0,0,0-1.9.8.90791.90791,0,0,0,.3.7,1.93371,1.93371,0,0,0,.9.5,9.29439,9.29439,0,0,1,1,.5,1.79371,1.79371,0,0,1,.5.7,2.38823,2.38823,0,0,1,.2.9,1.901,1.901,0,0,1-.5,1.3,1.72762,1.72762,0,0,1-1.3.5,1.92962,1.92962,0,0,1-1-.3,2.33629,2.33629,0,0,1-.7-.7,1.6446,1.6446,0,0,1-.2-1h.7a1.06065,1.06065,0,0,0,1.2,1.2,1.1356,1.1356,0,0,0,.8-.3,1.21662,1.21662,0,0,0,0-1.6C16.6,355.14679,16.2,354.94678,15.8,354.84677Z" style="fill: #fff"/>
    </g>
    <g>
      <path d="M25.2,351.84677H23.6v5.9h-.7v-5.9H21.3v-.7h3.8Z" style="fill: #010101"/>
      <path d="M28.7,354.64679H26.6v2.3h2.5v.7H25.9v-6.6H29v.7H26.5v2.1h2.1Z" style="fill: #010101"/>
      <path d="M30.5,357.04678h2.4v.7h-3v-6.6h.7Z" style="fill: #010101"/>
      <path d="M34.3,357.04678h2.4v.7h-3v-6.6h.7Z" style="fill: #010101"/>
      <path d="M40.2,356.04678H38.1l-.5,1.7h-.7l1.9-6.6h.6l1.9,6.6h-.7Zm-1.9-.7H40l-.8-3.1Z" style="fill: #010101"/>
      <path d="M43.8,355.04678H42.6v2.7h-.7v-6.6h1.6a1.72762,1.72762,0,0,1,1.3.5,2.06989,2.06989,0,0,1,.5,1.5,2.016,2.016,0,0,1-.3,1.1,2.33683,2.33683,0,0,1-.7.7l1.2,2.8v.1h-.7Zm-1.1-.7h1a1.1356,1.1356,0,0,0,.8-.3,1.5,1.5,0,0,0,0-1.8.98423.98423,0,0,0-.8-.3h-1Z" style="fill: #010101"/>
      <path d="M49.1,354.64679H47v2.3h2.5v.7H46.3v-6.6h3.1v.7H46.9v2.1H49Z" style="fill: #010101"/>
    </g>
  </g>
  <path id="path21497" d="M43.72265,246.83594A2.84251,2.84251,0,0,0,40.89055,244H19.11325a2.84576,2.84576,0,0,0-2.8359,2.83594v34.50781a2.84239,2.84239,0,0,0,2.8359,2.832h21.7773a2.83916,2.83916,0,0,0,2.8321-2.832Z" style="fill: #010101"/>
  <path id="path21497-2" d="M43.72265,291.83594A2.84249,2.84249,0,0,0,40.89055,289H19.11325a2.84575,2.84575,0,0,0-2.8359,2.83594v34.50781a2.84239,2.84239,0,0,0,2.8359,2.832h21.7773a2.83916,2.83916,0,0,0,2.8321-2.832Z" style="fill: #010101"/>
  <g>
    <path d="M23.04785,299.05859a7.01923,7.01923,0,0,0-.14941-1.05469,3.53546,3.53546,0,0,0-.27686-.79687,2.45007,2.45007,0,0,0-.4043-.58594,3.08252,3.08252,0,0,0-.53174-.44531h-.43945V299h-.63281v-7.5h1.3623a1.3998,1.3998,0,0,1,1.19092.60938,2.95667,2.95667,0,0,1,.44385,1.75781,2.78734,2.78734,0,0,1-.334,1.48242,1.40406,1.40406,0,0,1-.89648.66211,2.20282,2.20282,0,0,1,.90088,1.084,5.66923,5.66923,0,0,1,.41748,1.88086ZM21.24609,292.25v3.17578h.668a1.04234,1.04234,0,0,0,.51416-.11133.8037.8037,0,0,0,.312-.31641,1.45916,1.45916,0,0,0,.1582-.49219,4.2419,4.2419,0,0,0,.04395-.63867,4.57173,4.57173,0,0,0-.04395-.66211,1.47,1.47,0,0,0-.1626-.50977.86654.86654,0,0,0-.31641-.32812.98.98,0,0,0-.50537-.11719Z" style="fill: #fff;stroke: #fff;stroke-miterlimit: 10;stroke-width: 0.5px"/>
    <path d="M27.31055,292.25h-2.127v3h1.65234V296H25.18359v2.25h2.21484V299H24.55078v-7.5h2.75977Z" style="fill: #fff;stroke: #fff;stroke-miterlimit: 10;stroke-width: 0.5px"/>
    <path d="M31.125,292.39063a2.27792,2.27792,0,0,0-.47021-.1582,2.09472,2.09472,0,0,0-.44385-.05273,1.191,1.191,0,0,0-.54053.10547.84849.84849,0,0,0-.3252.28125,1.0384,1.0384,0,0,0-.1582.42188,3.326,3.326,0,0,0-.03955.52734,1.8073,1.8073,0,0,0,.167.84961,1.84419,1.84419,0,0,0,.41748.52734,3.32611,3.32611,0,0,0,.54053.38086,2.70038,2.70038,0,0,1,.54053.4043,1.94826,1.94826,0,0,1,.41748.60352,2.35991,2.35991,0,0,1,.167.97266,1.896,1.896,0,0,1-.44824,1.39453,1.73062,1.73062,0,0,1-1.27441.44531,2.82731,2.82731,0,0,1-.63721-.07617,2.73337,2.73337,0,0,1-.62842-.22852l.167-.77344a3.73723,3.73723,0,0,0,.52295.2168,1.9268,1.9268,0,0,0,.60205.08789,1.43064,1.43064,0,0,0,.501-.07617.75167.75167,0,0,0,.31641-.21094.80021.80021,0,0,0,.1626-.31641,1.52242,1.52242,0,0,0,.04834-.39258,1.33885,1.33885,0,0,0-.167-.7207,1.68574,1.68574,0,0,0-.41748-.45117q-.25049-.1875-.54053-.36328a2.61582,2.61582,0,0,1-.54053-.43945,2.10972,2.10972,0,0,1-.41748-.68555,3.07963,3.07963,0,0,1-.167-1.11328,3.18894,3.18894,0,0,1,.10986-.86133,2.03352,2.03352,0,0,1,.3252-.67969,1.46929,1.46929,0,0,1,.54053-.44531,1.70841,1.70841,0,0,1,.75586-.1582,2.98238,2.98238,0,0,1,.54053.05273,2.16565,2.16565,0,0,1,.51416.1582Z" style="fill: #fff;stroke: #fff;stroke-miterlimit: 10;stroke-width: 0.5px"/>
    <path d="M35.18555,292.25h-2.127v3h1.65234V296H33.05859v2.25h2.21484V299H32.42578v-7.5h2.75977Z" style="fill: #fff;stroke: #fff;stroke-miterlimit: 10;stroke-width: 0.5px"/>
    <path d="M39.38672,292.25H38.12109V299h-.63281v-6.75H36.22266v-.75h3.16406Z" style="fill: #fff;stroke: #fff;stroke-miterlimit: 10;stroke-width: 0.5px"/>
  </g>
  <g>
    <path d="M27.73242,255.54688l-.624-.14062,1.22168-8.98828.624.14063Z" style="fill: #fff;stroke: #fff;stroke-miterlimit: 10;stroke-width: 0.5px"/>
    <path d="M30.36035,253.23828a9.64758,9.64758,0,0,1,.708-3.7207,3.03434,3.03434,0,0,1,1.91113-1.7168v4.6875h.73828v.75h-.73828v1.5h-.63281v-1.5Zm1.98633-4.28906a2.62094,2.62094,0,0,0-.90137,1.32422,9.3008,9.3008,0,0,0-.4082,2.21484h1.30957Z" style="fill: #fff;stroke: #fff;stroke-miterlimit: 10;stroke-width: 0.5px"/>
  </g>
  <rect x="4.125" y="23.68498" width="51.75" height="20.88604" rx="3" ry="3" style="fill: #1e1b1c;stroke: #fff;stroke-miterlimit: 10"/>
  <g>
    <path d="M33.46065,29.82619v7.35945H35.987V38.423H32.146v-8.5968Z" style="fill: #fff"/>
    <path d="M37.5482,29.942a.812.812,0,1,1-.81218.81218A.793.793,0,0,1,37.5482,29.942Zm.63152,3.05482V38.423h-1.263V32.99678Z" style="fill: #fff"/>
    <path d="M39.278,32.99678h1.263v.50278a1.86912,1.86912,0,0,1,1.4694-.6445,1.81466,1.81466,0,0,1,1.5984.73457,2.42544,2.42544,0,0,1,.3351,1.50807V38.423h-1.2633V35.4071c0-1.37933-.5155-1.418-.99232-1.418-.56715,0-1.14728.07735-1.14728,1.83045V38.423H39.278Z" style="fill: #fff"/>
    <path d="M46.20724,29.027v5.787l1.766-1.81722h1.67549l-2.333,2.25562L49.81636,38.423H48.218l-1.77867-2.32-.23205.23205V38.423h-1.263V29.027Z" style="fill: #fff"/>
    <path d="M20.134,29.82053a.14062.14062,0,0,0-.12044.13139v.94137a.14321.14321,0,0,0,.12044.14234h8.35217a.13577.13577,0,0,0,.13139-.14234v-.94137a.13314.13314,0,0,0-.13139-.13139Zm0,2.47392a.14062.14062,0,0,0-.12044.13139v.94137a.14321.14321,0,0,0,.12044.14234h8.35217a.13577.13577,0,0,0,.13139-.14234v-.94137a.13314.13314,0,0,0-.13139-.13139Zm0,2.463a.14062.14062,0,0,0-.12044.13139v.94137a.14321.14321,0,0,0,.12044.14234h8.35217a.13577.13577,0,0,0,.13139-.14234V34.8888a.13314.13314,0,0,0-.13139-.13139Zm0,2.463a.14062.14062,0,0,0-.12044.13139v.94137a.14321.14321,0,0,0,.12044.14234h8.35217a.13577.13577,0,0,0,.13139-.14234v-.94137a.13314.13314,0,0,0-.13139-.13139Zm-1.33546-7.26846a.14062.14062,0,0,0-.13139-.12044h-.94137a.14321.14321,0,0,0-.14234.12044v8.35217a.13577.13577,0,0,0,.14234.13139h.94137a.13314.13314,0,0,0,.13139-.13139Zm-2.47392,0a.14062.14062,0,0,0-.13139-.12044h-.94137a.14321.14321,0,0,0-.14234.12044v8.35217a.13577.13577,0,0,0,.14234.13139h.94137a.13314.13314,0,0,0,.13139-.13139Zm-2.463,0a.14062.14062,0,0,0-.13139-.12044h-.94137a.14321.14321,0,0,0-.14234.12044v8.35217a.13577.13577,0,0,0,.14234.13139h.94137a.13314.13314,0,0,0,.13139-.13139Zm-2.463,0a.14062.14062,0,0,0-.13139-.12044H10.326a.14321.14321,0,0,0-.14234.12044v8.35217a.13577.13577,0,0,0,.14234.13139h.94137a.13314.13314,0,0,0,.13139-.13139Z" style="fill: #fff"/>
  </g>
  <g>
    <path d="M19.20386,68.05371a4.96867,4.96867,0,0,0-.18262-.9668,2.75552,2.75552,0,0,0-.33838-.73047,2.3709,2.3709,0,0,0-.49414-.53711,3.76128,3.76128,0,0,0-.6499-.4082h-.53711V68h-.77344V61.125h1.665a1.93754,1.93754,0,0,1,1.45557.55859,2.22236,2.22236,0,0,1,.54248,1.61133,2.05934,2.05934,0,0,1-.4082,1.35889,1.76294,1.76294,0,0,1-1.0957.60693,2.30586,2.30586,0,0,1,1.10107.99365,4.14618,4.14618,0,0,1,.51025,1.72412ZM17.00171,61.8125v2.91113h.81641a1.62808,1.62808,0,0,0,.62842-.10205.89557.89557,0,0,0,.38135-.29,1.12648,1.12648,0,0,0,.19336-.45117,2.947,2.947,0,0,0,.05371-.58545,3.17842,3.17842,0,0,0-.05371-.60693,1.13285,1.13285,0,0,0-.19873-.46729.96032.96032,0,0,0-.38672-.30078,1.5353,1.5353,0,0,0-.61768-.10742Z" style="stroke: #000;stroke-miterlimit: 10;stroke-width: 0.25px"/>
    <path d="M24.41431,61.8125h-2.6001v2.75h2.02V65.25h-2.02v2.0625h2.70752V68h-3.481V61.125h3.37354Z" style="stroke: #000;stroke-miterlimit: 10;stroke-width: 0.25px"/>
    <path d="M29.07642,61.94141a3.48223,3.48223,0,0,0-.57422-.145,3.385,3.385,0,0,0-.543-.04834,1.87444,1.87444,0,0,0-.66016.09668,1.01439,1.01439,0,0,0-.39844.25781.84336.84336,0,0,0-.19336.38672,2.37243,2.37243,0,0,0-.04785.4834,1.31543,1.31543,0,0,0,.2041.77881,1.88212,1.88212,0,0,0,.50977.4834,4.28878,4.28878,0,0,0,.66113.34912,3.47179,3.47179,0,0,1,.66113.37061,1.90167,1.90167,0,0,1,.50977.55322,1.69874,1.69874,0,0,1,.2041.8916,1.48926,1.48926,0,0,1-.54785,1.27832,2.56728,2.56728,0,0,1-1.55762.4082,4.55854,4.55854,0,0,1-.77832-.06982,4.06444,4.06444,0,0,1-.76855-.20947l.2041-.709a5.49886,5.49886,0,0,0,.63867.19873,3.09157,3.09157,0,0,0,.73633.08057,2.277,2.277,0,0,0,.6123-.06982.96953.96953,0,0,0,.38672-.19336.68713.68713,0,0,0,.19824-.29,1.05212,1.05212,0,0,0,.05957-.35986.99357.99357,0,0,0-.2041-.66064,1.84377,1.84377,0,0,0-.50977-.41357c-.20508-.11426-.4248-.22559-.66113-.333a3.22745,3.22745,0,0,1-.66113-.40283,1.947,1.947,0,0,1-.50977-.62842,2.19271,2.19271,0,0,1-.2041-1.02051,2.25945,2.25945,0,0,1,.13379-.78955,1.726,1.726,0,0,1,.39844-.623,1.77917,1.77917,0,0,1,.66016-.4082,2.6904,2.6904,0,0,1,.92383-.145,4.81221,4.81221,0,0,1,.66016.04834,3.31239,3.31239,0,0,1,.62891.145Z" style="stroke: #000;stroke-miterlimit: 10;stroke-width: 0.25px"/>
    <path d="M32.8147,68h-.77344V65.83008a7.53129,7.53129,0,0,1-1.05273-2.00879,12.10245,12.10245,0,0,1-.56934-2.65332l.7627-.0752q.07471.65552.17773,1.20313a9.12164,9.12164,0,0,0,.252,1.03662,9.79269,9.79269,0,0,0,.34961.95605q.19775.46729.4668.96143.26807-.49365.4668-.96143a9.79269,9.79269,0,0,0,.34961-.95605,9.12165,9.12165,0,0,0,.252-1.03662q.10254-.54785.17773-1.20312l.7627.0752a12.10245,12.10245,0,0,1-.56934,2.65332,7.53129,7.53129,0,0,1-1.05273,2.00879Z" style="stroke: #000;stroke-miterlimit: 10;stroke-width: 0.25px"/>
    <path d="M35.47876,61.125h.88086l1.54688,4.125.32227,1.332V61.125h.77344V68h-.88086l-1.54687-4.125-.32227-1.2998V68h-.77344Z" style="stroke: #000;stroke-miterlimit: 10;stroke-width: 0.25px"/>
    <path d="M41.12915,64.57324q0,.76318.043,1.2998a2.69529,2.69529,0,0,0,.19336.87549,1.00321,1.00321,0,0,0,.457.49951,1.79729,1.79729,0,0,0,.832.16113,4.11771,4.11771,0,0,0,.9668-.11816l.15039.65527a3.86314,3.86314,0,0,1-.58594.11279,5.09261,5.09261,0,0,1-.5957.0376,2.69341,2.69341,0,0,1-1.06836-.188,1.5766,1.5766,0,0,1-.709-.60693,2.95957,2.95957,0,0,1-.39844-1.09033,10.9665,10.9665,0,0,1,0-3.27637,2.9629,2.9629,0,0,1,.39844-1.09033,1.57958,1.57958,0,0,1,.709-.60693,2.69341,2.69341,0,0,1,1.06836-.188,5.17036,5.17036,0,0,1,.54785.03223,4.48869,4.48869,0,0,1,.56934.09668l-.15039.65527a4.51042,4.51042,0,0,0-.90234-.09668,1.79729,1.79729,0,0,0-.832.16113,1.00321,1.00321,0,0,0-.457.49951,2.71272,2.71272,0,0,0-.19336.88086Q41.12964,63.82153,41.12915,64.57324Z" style="stroke: #000;stroke-miterlimit: 10;stroke-width: 0.25px"/>
  </g>
  <g>
    <path d="M15.99756,105.65918q0-3.55518,2.00879-3.55566a1.621,1.621,0,0,1,1.52539.87549,7.58242,7.58242,0,0,1,0,5.32813,1.74664,1.74664,0,0,1-3.04,0A5.5794,5.5794,0,0,1,15.99756,105.65918Zm.81641,0a11.24775,11.24775,0,0,0,.06445,1.31055,3.38629,3.38629,0,0,0,.2041.87549,1.02233,1.02233,0,0,0,.37061.48877,1.09273,1.09273,0,0,0,1.10645,0,1.02834,1.02834,0,0,0,.37061-.48877,3.40652,3.40652,0,0,0,.2041-.87549,11.24775,11.24775,0,0,0,.06445-1.31055,11.39487,11.39487,0,0,0-.06445-1.31592,3.42316,3.42316,0,0,0-.2041-.88086,1.065,1.065,0,0,0-.37061-.49414,1.06033,1.06033,0,0,0-1.10645,0,1.05854,1.05854,0,0,0-.37061.49414,3.403,3.403,0,0,0-.2041.88086A11.39487,11.39487,0,0,0,16.814,105.65918Z" style="stroke: #000;stroke-miterlimit: 10;stroke-width: 0.25px"/>
    <path d="M24.5376,102.89844h-2.707v2.75H23.8501v.6875H21.83057v2.75h-.77344v-6.875H24.5376Z" style="stroke: #000;stroke-miterlimit: 10;stroke-width: 0.25px"/>
    <path d="M29.3501,102.89844h-2.707v2.75H28.6626v.6875H26.64307v2.75h-.77344v-6.875H29.3501Z" style="stroke: #000;stroke-miterlimit: 10;stroke-width: 0.25px"/>
    <path d="M33.90479,103.02734a3.48223,3.48223,0,0,0-.57422-.145,3.385,3.385,0,0,0-.543-.04834,1.87444,1.87444,0,0,0-.66016.09668,1.01439,1.01439,0,0,0-.39844.25781.84336.84336,0,0,0-.19336.38672,2.37243,2.37243,0,0,0-.04785.4834,1.31543,1.31543,0,0,0,.2041.77881,1.88212,1.88212,0,0,0,.50977.4834,4.28878,4.28878,0,0,0,.66113.34912,3.47179,3.47179,0,0,1,.66113.37061,1.90168,1.90168,0,0,1,.50977.55322,1.69874,1.69874,0,0,1,.2041.8916,1.48926,1.48926,0,0,1-.54785,1.27832,2.56728,2.56728,0,0,1-1.55762.4082,4.55854,4.55854,0,0,1-.77832-.06982,4.06444,4.06444,0,0,1-.76855-.20947l.2041-.709a5.49886,5.49886,0,0,0,.63867.19873,3.09157,3.09157,0,0,0,.73633.08057,2.277,2.277,0,0,0,.6123-.06982.96953.96953,0,0,0,.38672-.19336.68713.68713,0,0,0,.19824-.29,1.05212,1.05212,0,0,0,.05957-.35986.99357.99357,0,0,0-.2041-.66064,1.84377,1.84377,0,0,0-.50977-.41357c-.20508-.11426-.4248-.22559-.66113-.333a3.22745,3.22745,0,0,1-.66113-.40283,1.947,1.947,0,0,1-.50977-.62842,2.19271,2.19271,0,0,1-.2041-1.02051,2.25945,2.25945,0,0,1,.13379-.78955,1.726,1.726,0,0,1,.39844-.623,1.77917,1.77917,0,0,1,.66016-.4082,2.6904,2.6904,0,0,1,.92383-.145,4.81222,4.81222,0,0,1,.66016.04834,3.31239,3.31239,0,0,1,.62891.145Z" style="stroke: #000;stroke-miterlimit: 10;stroke-width: 0.25px"/>
    <path d="M38.86768,102.89844H36.26807v2.75H38.2876v.6875H36.26807v2.0625h2.707v.6875H35.49463v-6.875h3.373Z" style="stroke: #000;stroke-miterlimit: 10;stroke-width: 0.25px"/>
    <path d="M44.00244,102.89844H42.45557v6.1875h-.77344v-6.1875H40.13525v-.6875h3.86719Z" style="stroke: #000;stroke-miterlimit: 10;stroke-width: 0.25px"/>
  </g>
</svg>
