<svg id="Layer_1" data-name="Layer 1" xmlns="http://www.w3.org/2000/svg" xmlns:xlink="http://www.w3.org/1999/xlink" width="60" height="380" viewBox="0 0 60 380">
  <defs>
    <clipPath id="clip-path">
      <rect width="60" height="380" fill="none"/>
    </clipPath>
  </defs>
  <title>Link</title>
  <g id="background">
    <path id="path33453" d="M0,0H60V380H0Z" fill="#2c2d30"/>
  </g>
  <g id="FUN">
    <g>
      <g clip-path="url(#clip-path)">
        <g>
          <g>
            <line x1="45.4" y1="223.8" x2="48.1" y2="195.39999" fill="none" stroke="#4f5056" stroke-linecap="round" stroke-miterlimit="10" stroke-width="0.75"/>
            <line x1="63" y1="196.60001" x2="53.4" y2="194.39999" fill="none" stroke="#4f5056" stroke-linecap="round" stroke-miterlimit="10" stroke-width="0.75"/>
            <line x1="48.1" y1="195.39999" x2="53.4" y2="194.39999" fill="none" stroke="#4f5056" stroke-linecap="round" stroke-miterlimit="10" stroke-width="0.75"/>
            <line x1="15.2" y1="144.89999" x2="48.1" y2="195.39999" fill="none" stroke="#4f5056" stroke-linecap="round" stroke-miterlimit="10" stroke-width="0.75"/>
            <line x1="3.7" y1="140.5" x2="15.2" y2="144.89999" fill="none" stroke="#4f5056" stroke-linecap="round" stroke-miterlimit="10" stroke-width="0.75"/>
            <line x1="-7.8" y1="167.7" x2="3.7" y2="140.5" fill="none" stroke="#4f5056" stroke-linecap="round" stroke-miterlimit="10" stroke-width="0.75"/>
            <line x1="29.6" y1="118.9" x2="3.7" y2="140.5" fill="none" stroke="#4f5056" stroke-linecap="round" stroke-miterlimit="10" stroke-width="0.75"/>
            <line x1="37.4" y1="132.60001" x2="29.6" y2="118.9" fill="none" stroke="#4f5056" stroke-linecap="round" stroke-miterlimit="10" stroke-width="0.75"/>
            <line x1="47.3" y1="139.8" x2="37.4" y2="132.60001" fill="none" stroke="#4f5056" stroke-linecap="round" stroke-miterlimit="10" stroke-width="0.75"/>
            <line x1="74.1" y1="132.7" x2="47.3" y2="139.8" fill="none" stroke="#4f5056" stroke-linecap="round" stroke-miterlimit="10" stroke-width="0.75"/>
            <line x1="70" y1="88.3" x2="29.6" y2="118.9" fill="none" stroke="#4f5056" stroke-linecap="round" stroke-miterlimit="10" stroke-width="0.75"/>
            <line x1="-3.1" y1="139.10001" x2="3.7" y2="140.5" fill="none" stroke="#4f5056" stroke-linecap="round" stroke-miterlimit="10" stroke-width="0.75"/>
          </g>
          <g>
            <circle cx="47.3" cy="139.8" r="1.5" fill="#2c2d30" stroke="#4f5056" stroke-linecap="round" stroke-miterlimit="10" stroke-width="0.75"/>
            <circle cx="37.4" cy="132.60001" r="2" fill="#2c2d30" stroke="#4f5056" stroke-linecap="round" stroke-miterlimit="10" stroke-width="0.75"/>
            <circle cx="29.6" cy="118.9" r="2.9" fill="#2c2d30" stroke="#4f5056" stroke-linecap="round" stroke-miterlimit="10" stroke-width="0.75"/>
            <circle cx="15.2" cy="144.89999" r="2" fill="#2c2d30" stroke="#4f5056" stroke-linecap="round" stroke-miterlimit="10" stroke-width="0.75"/>
            <circle cx="3.8" cy="140.3" r="2.6" fill="#2c2d30" stroke="#4f5056" stroke-linecap="round" stroke-miterlimit="10" stroke-width="0.75"/>
            <circle cx="26.2" cy="161.7" r="2" fill="#2c2d30" stroke="#4f5056" stroke-linecap="round" stroke-miterlimit="10" stroke-width="0.75"/>
            <circle cx="47.8" cy="195.39999" r="1.4" fill="#2c2d30" stroke="#4f5056" stroke-linecap="round" stroke-miterlimit="10" stroke-width="0.75"/>
            <circle cx="53.4" cy="194.39999" r="1.7" fill="#2c2d30" stroke="#4f5056" stroke-linecap="round" stroke-miterlimit="10" stroke-width="0.75"/>
            <circle cx="62.3" cy="196.60001" r="2" fill="#2c2d30" stroke="#4f5056" stroke-linecap="round" stroke-miterlimit="10" stroke-width="0.75"/>
            <circle cx="45.4" cy="223.8" r="2" fill="#2c2d30" stroke="#4f5056" stroke-linecap="round" stroke-miterlimit="10" stroke-width="0.75"/>
          </g>
        </g>
      </g>
      <g clip-path="url(#clip-path)">
        <g>
          <g>
            <line x1="33.3" y1="275.29999" x2="22.4" y2="301.70001" fill="none" stroke="#4f5056" stroke-linecap="round" stroke-miterlimit="10" stroke-width="0.75"/>
            <line x1="22.4" y1="301.70001" x2="17" y2="301.10001" fill="none" stroke="#4f5056" stroke-linecap="round" stroke-miterlimit="10" stroke-width="0.75"/>
            <line x1="39.1" y1="359.70001" x2="22.4" y2="301.70001" fill="none" stroke="#4f5056" stroke-linecap="round" stroke-miterlimit="10" stroke-width="0.75"/>
            <line x1="48.7" y1="367.20001" x2="39.1" y2="359.70001" fill="none" stroke="#4f5056" stroke-linecap="round" stroke-miterlimit="10" stroke-width="0.75"/>
            <line x1="67.7" y1="344.60001" x2="48.7" y2="367.20001" fill="none" stroke="#4f5056" stroke-linecap="round" stroke-miterlimit="10" stroke-width="0.75"/>
            <line x1="17.6" y1="380.20001" x2="48.7" y2="367.20001" fill="none" stroke="#4f5056" stroke-linecap="round" stroke-miterlimit="10" stroke-width="0.75"/>
            <line x1="14.2" y1="365" x2="17.6" y2="380.20001" fill="none" stroke="#4f5056" stroke-linecap="round" stroke-miterlimit="10" stroke-width="0.75"/>
            <line x1="6.8" y1="355.10001" x2="14.2" y2="365" fill="none" stroke="#4f5056" stroke-linecap="round" stroke-miterlimit="10" stroke-width="0.75"/>
            <line x1="-20.8" y1="354" x2="6.8" y2="355.10001" fill="none" stroke="#4f5056" stroke-linecap="round" stroke-miterlimit="10" stroke-width="0.75"/>
            <line x1="-29.9" y1="397.70001" x2="17.6" y2="380.20001" fill="none" stroke="#4f5056" stroke-linecap="round" stroke-miterlimit="10" stroke-width="0.75"/>
            <line x1="54.8" y1="370.5" x2="48.7" y2="367.20001" fill="none" stroke="#4f5056" stroke-linecap="round" stroke-miterlimit="10" stroke-width="0.75"/>
            <line x1="68.1" y1="386.60001" x2="54.8" y2="370.5" fill="none" stroke="#4f5056" stroke-linecap="round" stroke-miterlimit="10" stroke-width="0.75"/>
          </g>
          <g>
            <circle cx="6.8" cy="355.10001" r="1.5" fill="#2c2d30" stroke="#4f5056" stroke-linecap="round" stroke-miterlimit="10" stroke-width="0.75"/>
            <circle cx="14.2" cy="365" r="2" fill="#2c2d30" stroke="#4f5056" stroke-linecap="round" stroke-miterlimit="10" stroke-width="0.75"/>
            <circle cx="17.6" cy="380.20001" r="2.9" fill="#2c2d30" stroke="#4f5056" stroke-linecap="round" stroke-miterlimit="10" stroke-width="0.75"/>
            <circle cx="39.1" cy="359.70001" r="2" fill="#2c2d30" stroke="#4f5056" stroke-linecap="round" stroke-miterlimit="10" stroke-width="0.75"/>
            <circle cx="48.6" cy="367.29999" r="2.6" fill="#2c2d30" stroke="#4f5056" stroke-linecap="round" stroke-miterlimit="10" stroke-width="0.75"/>
            <circle cx="55.2" cy="370.70001" r="2" fill="#2c2d30" stroke="#4f5056" stroke-linecap="round" stroke-miterlimit="10" stroke-width="0.75"/>
            <circle cx="33.5" cy="340.29999" r="2" fill="#2c2d30" stroke="#4f5056" stroke-linecap="round" stroke-miterlimit="10" stroke-width="0.75"/>
            <circle cx="22.7" cy="301.79999" r="1.4" fill="#2c2d30" stroke="#4f5056" stroke-linecap="round" stroke-miterlimit="10" stroke-width="0.75"/>
            <circle cx="16.99928" cy="301.10066" r="1.7" transform="translate(-3.07034 0.18906) rotate(-0.58443)" fill="#2c2d30" stroke="#4f5056" stroke-linecap="round" stroke-miterlimit="10" stroke-width="0.75"/>
            <circle cx="33.3" cy="275.29999" r="2" fill="#2c2d30" stroke="#4f5056" stroke-linecap="round" stroke-miterlimit="10" stroke-width="0.75"/>
          </g>
        </g>
      </g>
    </g>
  </g>
  <g id="PRINT">
    <path d="M17.2,99.8a17.96051,17.96051,0,1,1,25.4,0" fill="#2c2d30" stroke="#9ea1a8" stroke-linecap="round" stroke-miterlimit="10"/>
    <g>
      <line x1="36.9" y1="350.89999" x2="49.2" y2="338.5" fill="none" stroke="#9ea1a8" stroke-linecap="round" stroke-miterlimit="10"/>
      <g>
        <circle cx="49.3" cy="338.39999" r="2.29999" fill="#9ea1a8" stroke="#9ea1a8" stroke-linecap="round" stroke-miterlimit="10"/>
        <circle cx="49.3" cy="338.39999" r="0.79999" fill="#2c2d30"/>
      </g>
    </g>
    <g>
      <line x1="22" y1="314.79999" x2="9.6" y2="302.39999" fill="none" stroke="#9ea1a8" stroke-linecap="round" stroke-miterlimit="10"/>
      <g>
        <circle cx="9.5" cy="302.29999" r="2.29999" fill="#9ea1a8" stroke="#9ea1a8" stroke-linecap="round" stroke-miterlimit="10"/>
        <circle cx="9.5" cy="302.29999" r="0.79999" fill="#2c2d30"/>
      </g>
    </g>
    <g>
      <line x1="37.9" y1="278.70001" x2="50.2" y2="266.39999" fill="none" stroke="#9ea1a8" stroke-linecap="round" stroke-miterlimit="10"/>
      <g>
        <circle cx="50.3" cy="266.29999" r="2.29999" fill="#9ea1a8" stroke="#9ea1a8" stroke-linecap="round" stroke-miterlimit="10"/>
        <circle cx="50.3" cy="266.29999" r="0.79999" fill="#2c2d30"/>
      </g>
    </g>
    <g>
      <circle cx="30.1" cy="69" r="2.3" fill="#9ea1a8"/>
      <path d="M30.1,67.5A1.5,1.5,0,1,1,28.6,69a1.538,1.538,0,0,1,1.5-1.5m0-1.5a3,3,0,1,0,3,3,2.94645,2.94645,0,0,0-3-3Z" fill="#2c2d30"/>
    </g>
    <g>
      <path d="M9.6,370.2a3.6,3.6,0,1,0,3.6,3.6A3.585,3.585,0,0,0,9.6,370.2Zm1.2,6a1.594,1.594,0,0,1-1.2.4,2.9197,2.9197,0,0,1-.9-.2.90155.90155,0,0,1-.6-.6,1.07747,1.07747,0,0,1-.2-.8h.7a1.13546,1.13546,0,0,0,.3.8.98426.98426,0,0,0,.8.3,1.44525,1.44525,0,0,0,.7-.2,1.42134,1.42134,0,0,0,.2-.6.84541.84541,0,0,0-.2-.6,1.9148,1.9148,0,0,0-.8-.4,3.91934,3.91934,0,0,1-.9-.4.99834.99834,0,0,1-.4-.5,1.89809,1.89809,0,0,1-.3-.9,1.15951,1.15951,0,0,1,.4-1,1.50391,1.50391,0,0,1,1.1-.4,1.8838,1.8838,0,0,1,.8.2,1.69781,1.69781,0,0,1,.6.6,1.88392,1.88392,0,0,1,.2.8h-.7a1.88382,1.88382,0,0,0-.2-.8.77859.77859,0,0,0-.7-.3.84533.84533,0,0,0-.6.2,1,1,0,0,0,0,1.2,1.50618,1.50618,0,0,0,.8.4,3.58074,3.58074,0,0,1,1.1.6,1.68937,1.68937,0,0,1,.3,1A1.4478,1.4478,0,0,1,10.8,376.2Z" fill="#9ea1a8"/>
      <path d="M16.8,371.7H15.4v4.8h-.7v-4.8H13.3v-.6h3.5Z" fill="#9ea1a8"/>
      <path d="M20.2,374H18.3v1.9h2.2v.6H17.6v-5.4h2.8v.6H18.2v1.7h1.9C20.2,373.4,20.2,374,20.2,374Z" fill="#9ea1a8"/>
      <path d="M22,375.9h2.1v.6H21.3v-5.4H22Z" fill="#9ea1a8"/>
      <path d="M25.6,375.9h2.1v.6H24.9v-5.4h.7Z" fill="#9ea1a8"/>
      <path d="M31.1,375.1H29.3l-.4,1.4h-.7l1.7-5.4h.6l1.7,5.4h-.7Zm-1.7-.6h1.5l-.7-2.4Z" fill="#9ea1a8"/>
      <path d="M34.5,374.3h-.9v2.2h-.7v-5.4h1.5a1.41421,1.41421,0,0,1,1.6,1.6,2.91976,2.91976,0,0,1-.2.9c-.1.2-.4.4-.6.6l1,2.3h-.7Zm-.9-.6h.8a1.02528,1.02528,0,0,0,1-1c0-.7-.3-1-.9-1h-.8l-.1,2Z" fill="#9ea1a8"/>
      <path d="M39.5,374H37.6v1.9h2.2v.6H36.9v-5.4h2.8v.6H37.5v1.7h1.9C39.5,373.4,39.5,374,39.5,374Z" fill="#9ea1a8"/>
    </g>
    <g>
      <path d="M12.7,14.7H47.5A2.263,2.263,0,0,1,49.8,17V28.3a2.263,2.263,0,0,1-2.3,2.3H12.7a2.263,2.263,0,0,1-2.3-2.3V17A2.32606,2.32606,0,0,1,12.7,14.7Z" fill="#9ea1a8"/>
      <g>
        <path d="M32.7,19.4V25h1.9v.9H31.7V19.4Z" fill="#2c2d30"/>
        <path d="M35.8,19.4a.6.6,0,1,1-.6.6c0-.3.3-.5.6-.6Zm.5,2.4v4.1h-1V21.8Z" fill="#2c2d30"/>
        <path d="M37.2,21.8h1v.4a1.60584,1.60584,0,0,1,1.1-.5,1.4255,1.4255,0,0,1,1.2.6,2.01583,2.01583,0,0,1,.3,1.1v2.5h-1V23.6c0-1-.4-1.1-.8-1.1s-.9.1-.9,1.4v2h-1Z" fill="#2c2d30"/>
        <path d="M42.4,18.7v4.4l1.3-1.4H45l-1.8,1.7,1.9,2.4H43.9L42.5,24l-.2.2v1.6h-1V18.7Z" fill="#2c2d30"/>
        <path d="M22.6,19.4h0l-.1.8c0,.1,0,.1.1.1h6.3c.1,0,.1,0,.1-.1h0v-.7c0-.1,0-.1-.1-.1Zm0,1.8c-.1,0-.1.1,0,0l-.1.8c0,.1,0,.1.1.1h6.3c.1,0,.1,0,.1-.1h0v-.7c0-.1,0-.1-.1-.1Zm0,1.9c-.1,0-.1.1,0,0l-.1.8c0,.1,0,.1.1.1h6.3c.1,0,.1,0,.1-.1h0v-.7c0-.1,0-.1-.1-.1Zm0,1.9h0l-.1.8c0,.1,0,.1.1.1h6.3c.1,0,.1,0,.1-.1h0v-.7c0-.1,0-.1-.1-.1Zm-1-5.5c0-.1-.1-.1,0,0l-.8-.1c-.1,0-.1,0-.1.1v6.3c0,.1,0,.1.1.1h.7c.1,0,.1,0,.1-.1Zm-1.9,0h0l-.8-.1c-.1,0-.1,0-.1.1v6.3c0,.1,0,.1.1.1h.7c.1,0,.1,0,.1-.1Zm-1.9,0h0l-.8-.1c-.1,0-.1,0-.1.1v6.3c0,.1,0,.1.1.1h.7c.1,0,.1,0,.1-.1Zm-1.8,0c0-.1-.1-.1,0,0l-.8-.1c-.1,0-.1,0-.1.1v6.3c0,.1,0,.1.1.1h.7c.1,0,.1,0,.1-.1Z" fill="#2c2d30"/>
      </g>
    </g>
    <g>
      <path d="M17.5,147.6a17.96051,17.96051,0,1,1,25.4,0" fill="#2c2d30" stroke="#9ea1a8" stroke-linecap="round" stroke-miterlimit="10"/>
      <g>
        <circle cx="30" cy="116.95" r="2.3" fill="#9ea1a8"/>
        <path d="M30,115.45a1.5,1.5,0,1,1-1.5,1.5,1.538,1.538,0,0,1,1.5-1.5m0-1.5a3,3,0,1,0,3,3,2.94645,2.94645,0,0,0-3-3Z" fill="#2c2d30"/>
      </g>
      <circle cx="30.2" cy="134.89999" r="18" fill="none"/>
    </g>
    <g>
      <path d="M17.5,195.6a17.96051,17.96051,0,1,1,25.4,0" fill="#2c2d30" stroke="#9ea1a8" stroke-linecap="round" stroke-miterlimit="10"/>
      <g>
        <circle cx="17.8" cy="195.60001" r="2.3" fill="#9ea1a8"/>
        <path d="M17.8,194.1a1.5,1.5,0,1,1-1.5,1.5,1.538,1.538,0,0,1,1.5-1.5m0-1.5a3,3,0,1,0,3,3,2.94645,2.94645,0,0,0-3-3Z" fill="#2c2d30"/>
      </g>
      <circle cx="30.2" cy="182.89999" r="18" fill="none"/>
    </g>
    <g>
      <path d="M15.5,206v-.3h1v.3a.6.6,0,1,0,1.2,0v-.6a.53034.53034,0,0,0-.6-.6,1.472,1.472,0,0,1-1.6-1.6v-.8a1.472,1.472,0,0,1,1.6-1.6,1.472,1.472,0,0,1,1.6,1.6v.3h-1v-.3a.6.6,0,1,0-1.2,0v.8a.53034.53034,0,0,0,.6.6,1.472,1.472,0,0,1,1.6,1.6v.6a1.472,1.472,0,0,1-1.6,1.6A1.47028,1.47028,0,0,1,15.5,206Z" fill="#9ea1a8"/>
      <path d="M20.3,201h1v3.3h1V201h1v6.5h-1v-2.2h-1v2.2h-1Z" fill="#9ea1a8"/>
      <path d="M28.2,206a1.472,1.472,0,0,1-1.6,1.6A1.472,1.472,0,0,1,25,206v-5h1v5.1a.6.6,0,1,0,1.2,0V201h1Z" fill="#9ea1a8"/>
      <path d="M30,201h2.7v1H31v2.3h1.4v1H31v2.2H30Z" fill="#9ea1a8"/>
      <path d="M34,201h2.7v1H35v2.3h1.4v1H35v2.2H34Z" fill="#9ea1a8"/>
      <path d="M39,206.5h1.5v1H38V201h1Z" fill="#9ea1a8"/>
      <path d="M44.4,202H42.7v1.6h1.4v1H42.7v1.9h1.7v1H41.7V201h2.7Z" fill="#9ea1a8"/>
    </g>
    <g>
      <path d="M19.9,248.9a1.05018,1.05018,0,0,1,.5.9v1.9h-1v-1.9a.47239.47239,0,0,0-.5-.5h-.6v2.4h-1v-6.5h1.6a1.44622,1.44622,0,0,1,1.5,1.6v1A1.60581,1.60581,0,0,1,19.9,248.9Zm-.5-2.2a.47239.47239,0,0,0-.5-.5h-.6v2.1h.6a.47239.47239,0,0,0,.5-.5Z" fill="#9ea1a8"/>
      <path d="M24.7,246.1H23v1.6h1.4v1H23v1.9h1.7v1H22v-6.5h2.7Z" fill="#9ea1a8"/>
      <path d="M26,250.2v-.3h1v.3a.6.6,0,1,0,1.2,0v-.6a.53034.53034,0,0,0-.6-.6,1.472,1.472,0,0,1-1.6-1.6v-.8a1.6,1.6,0,1,1,3.2,0v.3h-1v-.3a.6.6,0,1,0-1.2,0v.8a.53034.53034,0,0,0,.6.6,1.472,1.472,0,0,1,1.6,1.6v.6a1.472,1.472,0,0,1-1.6,1.6A1.52175,1.52175,0,0,1,26,250.2Z" fill="#9ea1a8"/>
      <path d="M33.9,245.1l-1.4,3.4v3.1h-1v-3.1l-1.4-3.4h1l.9,2.4.9-2.4Z" fill="#9ea1a8"/>
      <path d="M38.2,245.1v6.5h-.8L36,247.8v3.8H35v-6.5h.8l1.4,3.8v-3.8Z" fill="#9ea1a8"/>
      <path d="M43,250.2a1.6,1.6,0,1,1-3.2,0v-3.6a1.6,1.6,0,1,1,3.2,0v.3H42v-.3a.6.6,0,1,0-1.2,0v3.6a.6.6,0,1,0,1.2,0v-.3h1Z" fill="#9ea1a8"/>
    </g>
    <g>
      <path d="M18.2,159v-3.6a1.472,1.472,0,0,1,1.6-1.6,1.472,1.472,0,0,1,1.6,1.6V159a1.472,1.472,0,0,1-1.6,1.6A1.472,1.472,0,0,1,18.2,159Zm2.1,0v-3.6a.6.6,0,1,0-1.2,0V159a.6.6,0,1,0,1.2,0Z" fill="#9ea1a8"/>
      <path d="M23,153.9h2.7v1H24v2.3h1.4v1H24v2.2H23Z" fill="#9ea1a8"/>
      <path d="M27.1,153.9h2.7v1H28.1v2.3h1.4v1H28.1v2.2h-1Z" fill="#9ea1a8"/>
      <path d="M30.8,159v-.3h1v.3a.6.6,0,1,0,1.2,0v-.6a.53034.53034,0,0,0-.6-.6,1.472,1.472,0,0,1-1.6-1.6v-.8a1.6,1.6,0,1,1,3.2,0v.3H33v-.3a.6.6,0,1,0-1.2,0v.8a.53034.53034,0,0,0,.6.6,1.472,1.472,0,0,1,1.6,1.6v.6a1.472,1.472,0,0,1-1.6,1.6A1.52176,1.52176,0,0,1,30.8,159Z" fill="#9ea1a8"/>
      <path d="M38.2,155H36.5v1.6H38v1H36.6v1.9h1.7v1H35.6V154h2.7v1Z" fill="#9ea1a8"/>
      <path d="M40.2,155h-1v-1h3v1h-1v5.5h-1Z" fill="#9ea1a8"/>
    </g>
    <g>
      <path d="M19.6,105.9h-1v-1h3v1h-1v5.5h-1Z" fill="#9ea1a8"/>
      <path d="M25.5,105.9H23.8v1.6h1.4v1H23.8v1.9h1.7v1H22.8v-6.5h2.7Z" fill="#9ea1a8"/>
      <path d="M31.4,104.9v6.5h-.9v-3.3l-.9,3.3h-.7l-.9-3.3v3.3H27v-6.5h1l1.3,4.8,1.3-4.8Z" fill="#9ea1a8"/>
      <path d="M33.2,104.9h1.6a1.44621,1.44621,0,0,1,1.5,1.6v.8a1.49871,1.49871,0,0,1-1.5,1.6h-.6v2.6h-1Zm1.6,3a.47239.47239,0,0,0,.5-.5v-.8a.47239.47239,0,0,0-.5-.5h-.6V108C34.2,107.9,34.8,107.9,34.8,107.9Z" fill="#9ea1a8"/>
      <path d="M37.6,110v-3.6a1.6,1.6,0,0,1,3.2,0V110a1.472,1.472,0,0,1-1.6,1.6A1.52175,1.52175,0,0,1,37.6,110Zm2.2,0v-3.6a.6.6,0,0,0-1.2,0V110a.53033.53033,0,0,0,.6.6A.57639.57639,0,0,0,39.8,110Z" fill="#9ea1a8"/>
    </g>
    <g>
      <path d="M37.3,331.2a1.0502,1.0502,0,0,1,.5.9V334h-1v-1.9a.47239.47239,0,0,0-.5-.5h-.6V334h-1v-6.5h1.6a1.44622,1.44622,0,0,1,1.5,1.6v1A1.6059,1.6059,0,0,1,37.3,331.2Zm-.6-2.2a.47239.47239,0,0,0-.5-.5h-.6v2.1h.6a.47239.47239,0,0,0,.5-.5Z" fill="#9ea1a8"/>
      <path d="M42.1,328.4H40.4V330h1.4v1H40.4v1.9h1.7v1H39.4v-6.5h2.7Z" fill="#9ea1a8"/>
      <path d="M43.4,332.4v-.3h1v.3a.6.6,0,1,0,1.2,0v-.6a.53034.53034,0,0,0-.6-.6,1.472,1.472,0,0,1-1.6-1.6v-.8a1.6,1.6,0,1,1,3.2,0v.3h-1v-.3a.6.6,0,1,0-1.2,0v.8a.53034.53034,0,0,0,.6.6,1.472,1.472,0,0,1,1.6,1.6v.6A1.472,1.472,0,0,1,45,334,1.42737,1.42737,0,0,1,43.4,332.4Z" fill="#9ea1a8"/>
      <path d="M50.8,328.4H49.1V330h1.4v1H49.1v1.9h1.7v1H48.1v-6.5h2.7Z" fill="#9ea1a8"/>
      <path d="M52.7,328.4h-1v-1h3v1h-1v5.5h-1Z" fill="#9ea1a8"/>
    </g>
    <g>
      <path d="M8.4,290.8h1L7.1,298h-1Z" fill="#9ea1a8"/>
      <path d="M13.8,295.4v1h-.5v1.2h-1v-1.2H10v-.9l2.3-4.4h.9v4.3ZM12.2,293,11,295.3h1.2Z" fill="#9ea1a8"/>
    </g>
    <g>
      <path d="M47.1,255.2h1l-2.3,7.2h-1Z" fill="#9ea1a8"/>
      <path d="M49.9,260.9v.1H52v1H48.8v-.9c0-2.1,2.2-2.2,2.2-3.3V257a.6.6,0,1,0-1.2,0v.3h-1V257a1.6,1.6,0,1,1,3.2,0v.8C52.1,259.3,49.9,259.6,49.9,260.9Z" fill="#9ea1a8"/>
    </g>
  </g>
  <g id="SCREENS">
    <g>
      <path d="M15.4,55.8a2.05061,2.05061,0,0,1-2.1-2.1V41.4a2.05061,2.05061,0,0,1,2.1-2.1H44.7a2.05061,2.05061,0,0,1,2.1,2.1V53.7a2.05061,2.05061,0,0,1-2.1,2.1Z" fill="#1c1c1c"/>
      <path d="M44.6,39.5a1.89871,1.89871,0,0,1,1.9,1.9V53.7a1.89871,1.89871,0,0,1-1.9,1.9H15.4a1.89871,1.89871,0,0,1-1.9-1.9V41.4a1.89871,1.89871,0,0,1,1.9-1.9H44.6m0-.5H15.4A2.4334,2.4334,0,0,0,13,41.4V53.7a2.4334,2.4334,0,0,0,2.4,2.4H44.7a2.4334,2.4334,0,0,0,2.4-2.4V41.4A2.59481,2.59481,0,0,0,44.6,39Z" fill="#9ea1a8"/>
    </g>
  </g>
</svg>
