<svg id="Layer_1" data-name="Layer 1" xmlns="http://www.w3.org/2000/svg" width="115.19919" height="364.24997" viewBox="0 0 115.19919 364.24997">
  <title>SMP-01-Grey</title>
  <rect width="115.19919" height="364.24997" style="fill: #3d3d3b"/>
  <g>
    <path d="M44.36816,19.34375a1.31126,1.31126,0,0,0-.3457-.97852,3.54165,3.54165,0,0,0-1.248-.66211,5.41772,5.41772,0,0,1-1.37988-.67676,2.39513,2.39513,0,0,1-.71484-.80859,2.39834,2.39834,0,0,1,.43945-2.71,2.43844,2.43844,0,0,1,1.77246-.65625,2.64518,2.64518,0,0,1,1.33594.335,2.28376,2.28376,0,0,1,.90234.93164,2.75612,2.75612,0,0,1,.31641,1.31152H44.36816a1.79615,1.79615,0,0,0-.38086-1.22461,1.38062,1.38062,0,0,0-1.0957-.43359,1.34831,1.34831,0,0,0-1.00781.36377,1.3965,1.3965,0,0,0-.35742,1.02148,1.19086,1.19086,0,0,0,.38672.90381,3.42231,3.42231,0,0,0,1.19531.65137,4.11885,4.11885,0,0,1,1.80176,1.02637,2.30856,2.30856,0,0,1,.542,1.59375,2.15572,2.15572,0,0,1-.67383,1.66113,2.59356,2.59356,0,0,1-1.834.624,2.9506,2.9506,0,0,1-1.374-.3252,2.45832,2.45832,0,0,1-.99023-.91406,2.535,2.535,0,0,1-.36035-1.35059h1.07813a1.65705,1.65705,0,0,0,.44238,1.23047,1.63321,1.63321,0,0,0,1.2041.43945,1.43334,1.43334,0,0,0,1.06641-.36328A1.3506,1.3506,0,0,0,44.36816,19.34375Z" transform="translate(-0.5 0.29662)" style="fill: #fff"/>
    <path d="M48.24121,12.96875l2.22656,6.96094,2.22656-6.96094h1.38281V21.5H53.00488V18.17773l.09961-3.32812L50.87207,21.5h-.82031l-2.2207-6.627.09961,3.30469V21.5H46.8584V12.96875Z" transform="translate(-0.5 0.29662)" style="fill: #fff"/>
    <path d="M56.99512,18.16016V21.5H55.92285V12.96875H58.6416a2.46145,2.46145,0,0,1,1.86914.71191,2.6307,2.6307,0,0,1,.67969,1.89551,2.6059,2.6059,0,0,1-.64746,1.89551,2.504,2.504,0,0,1-1.8252.68848Zm0-.91992H58.6416a1.38755,1.38755,0,0,0,1.0957-.42871,1.78625,1.78625,0,0,0,.38086-1.22656,1.84306,1.84306,0,0,0-.39258-1.23242,1.33774,1.33774,0,0,0-1.07812-.46387H56.99512Z" transform="translate(-0.5 0.29662)" style="fill: #fff"/>
    <path d="M64.34863,18.31836H61.92871v-.88477h2.41992Z" transform="translate(-0.5 0.29662)" style="fill: #fff"/>
    <path d="M69.874,17.86133a5.68964,5.68964,0,0,1-.55078,2.82129,2.06772,2.06772,0,0,1-3.43359.03809,5.28567,5.28567,0,0,1-.58594-2.69531V16.56055a5.532,5.532,0,0,1,.55371-2.78906,2.09254,2.09254,0,0,1,3.43359-.04687,5.18057,5.18057,0,0,1,.583,2.64258Zm-1.03711-1.48242a4.99188,4.99188,0,0,0-.29883-1.99512.99535.99535,0,0,0-.95508-.6416.98373.98373,0,0,0-.9375.62988,4.73746,4.73746,0,0,0-.31055,1.90137v1.75781a5.06931,5.06931,0,0,0,.31055,2.02441,1.00688,1.00688,0,0,0,.94922.67676.97984.97984,0,0,0,.93164-.63867,4.93914,4.93914,0,0,0,.31055-1.95117Z" transform="translate(-0.5 0.29662)" style="fill: #fff"/>
    <path d="M74.32715,21.5h-1.043V14.27539l-1.793.80273v-.98437l2.67188-1.166h.16406Z" transform="translate(-0.5 0.29662)" style="fill: #fff"/>
  </g>
  <g>
    <g>
      <circle cx="42.79868" cy="343.68382" r="5.52428" style="fill: #fff"/>
      <path d="M43.29867,343.80413a2.38164,2.38164,0,0,1-1.25078-.83384,1.66148,1.66148,0,0,1-.41693-1.2508,1.98142,1.98142,0,0,1,.52116-1.355,1.72616,1.72616,0,0,1,1.25078-.52116,1.68112,1.68112,0,0,1,.93809.31268,1.40137,1.40137,0,0,1,.62539.72964,3.08362,3.08362,0,0,1,.20846,1.04232h-.72962a1.274,1.274,0,0,0-.3127-.93808,1.14747,1.14747,0,0,0-1.98041.83384.94633.94633,0,0,0,.3127.72964,2.01555,2.01555,0,0,0,.93809.52116,9.68839,9.68839,0,0,1,1.04232.52116,1.86968,1.86968,0,0,1,.52116.72964,2.4893,2.4893,0,0,1,.20846.93808,1.98142,1.98142,0,0,1-.52116,1.355,1.80074,1.80074,0,0,1-1.355.52116,2.01129,2.01129,0,0,1-1.04232-.31268,2.43516,2.43516,0,0,1-.72962-.72964,1.71422,1.71422,0,0,1-.20846-1.04232h.72962a1.10553,1.10553,0,0,0,1.25078,1.2508,1.18365,1.18365,0,0,0,.83386-.31268,1.2681,1.2681,0,0,0,0-1.66772C44.13252,344.11685,43.7156,343.90837,43.29867,343.80413Z" transform="translate(-0.5 0.29662)" style="fill: #3d3d3b"/>
    </g>
    <g>
      <path d="M53.09647,340.67717H51.42876v6.14967h-.72962v-6.14967H49.03143v-.72964h3.96081v.72964Z" transform="translate(-0.5 0.29662)" style="fill: #fff"/>
      <path d="M56.74459,343.59569H54.55571V345.993h2.6058v.72964H53.82609v-6.87931h3.23119v.72964h-2.6058v2.18888h2.18888v.83384Z" transform="translate(-0.5 0.29662)" style="fill: #fff"/>
      <path d="M58.62076,346.09724h2.50156v.72964h-3.127v-6.87931H58.725v6.14967Z" transform="translate(-0.5 0.29662)" style="fill: #fff"/>
      <path d="M62.58156,346.09724h2.50156v.72964h-3.127v-6.87931h.72962v6.14967Z" transform="translate(-0.5 0.29662)" style="fill: #fff"/>
      <path d="M68.73125,345.05493H66.54238l-.52116,1.772H65.2916l1.9804-6.87931h.6254l1.9804,6.87931h-.72962Zm-1.9804-.72964h1.77194l-.83386-3.23119Z" transform="translate(-0.5 0.29662)" style="fill: #fff"/>
      <path d="M72.48359,344.01261H71.23281v2.81427h-.72962v-6.87931h1.66772a1.80073,1.80073,0,0,1,1.355.52116,2.15751,2.15751,0,0,1,.52116,1.56348,2.10126,2.10126,0,0,1-.3127,1.14656,2.4357,2.4357,0,0,1-.72962.72964l1.25078,2.91848v.10424h-.72962ZM71.337,343.283h1.04232a1.18368,1.18368,0,0,0,.83386-.31268,1.56348,1.56348,0,0,0,0-1.87616,1.02589,1.02589,0,0,0-.83386-.31268H71.337Z" transform="translate(-0.5 0.29662)" style="fill: #fff"/>
      <path d="M78.00788,343.59569H75.819V345.993h2.6058v.72964H75.08939v-6.87931h3.23119v.72964h-2.6058v2.18888h2.18888v.83384Z" transform="translate(-0.5 0.29662)" style="fill: #fff"/>
    </g>
  </g>
  <g id="layer1">
    <g id="g56702">
      <g id="g5827">
        <path id="path5829" d="M81.24808,48.59289a.6952.6952,0,0,1,.69259-.69259h5.18808a.6952.6952,0,0,1,.69259.69259v8.3067a.69478.69478,0,0,1-.69259.6921H81.94067a.69478.69478,0,0,1-.69259-.6921Z" transform="translate(-0.5 0.29662)" style="fill: #010101"/>
      </g>
      <g id="g5839">
        <g id="g5841">
          <path id="path5849" d="M82.27826,48.52612a.41688.41688,0,0,0-.41614.41515h0v7.68a.41729.41729,0,0,0,.41614.41563h4.51259a.41681.41681,0,0,0,.41515-.41563h0v-7.68a.41636.41636,0,0,0-.41515-.41515H82.27826Z" transform="translate(-0.5 0.29662)" style="fill: #282929"/>
        </g>
      </g>
      <path id="path5859" d="M81.86311,48.52558h5.3434v4.15361h-5.3434Z" transform="translate(-0.5 0.29662)" style="fill: #454545"/>
      <path id="path5861" d="M81.86311,50.37382h5.3434V50.831h-5.3434Z" transform="translate(-0.5 0.29662)" style="fill: #9a9999"/>
      <path id="path5863" d="M81.86311,52.222h5.3434v.45719h-5.3434Z" transform="translate(-0.5 0.29662)" style="fill: #9a9999"/>
      <path id="path5865" d="M81.86311,51.29839h5.3434v.45719h-5.3434Z" transform="translate(-0.5 0.29662)" style="fill: #9a9999"/>
      <path id="path5867" d="M81.86311,49.44973h5.3434v.45719h-5.3434Z" transform="translate(-0.5 0.29662)" style="fill: #9a9999"/>
      <path id="path5869" d="M81.86311,48.52558h5.3434v.45719h-5.3434Z" transform="translate(-0.5 0.29662)" style="fill: #9a9999"/>
    </g>
  </g>
  <g>
    <path d="M72.34961,65.83008h-1v2.30078h-.71875v-5.6875h1.59375a1.70541,1.70541,0,0,1,1.26563.43555,1.74411,1.74411,0,0,1,.42969,1.27539,1.77836,1.77836,0,0,1-.23242.91992,1.47365,1.47365,0,0,1-.6582.5918l1.10156,2.418v.04688h-.76953Zm-1-.61328h.86719a.93221.93221,0,0,0,.7168-.28906,1.102,1.102,0,0,0,.26758-.77539q0-1.0957-.99219-1.0957h-.85937Z" transform="translate(-0.5 0.29662)" style="fill: #fff"/>
    <path d="M77.60352,65.502H75.5918v2.01563h2.34375v.61328H74.877v-5.6875h3.01953v.61328H75.5918v1.832h2.01172Z" transform="translate(-0.5 0.29662)" style="fill: #fff"/>
    <path d="M80.47461,67.0332l1.30078-4.58984h.78516L80.791,68.13086h-.625l-1.76562-5.6875h.78125Z" transform="translate(-0.5 0.29662)" style="fill: #fff"/>
    <path d="M86.05664,65.502H84.04492v2.01563h2.34375v.61328H83.33008v-5.6875h3.01953v.61328H84.04492v1.832h2.01172Z" transform="translate(-0.5 0.29662)" style="fill: #fff"/>
    <path d="M89.02148,65.83008h-1v2.30078h-.71875v-5.6875h1.59375a1.70541,1.70541,0,0,1,1.26563.43555,1.74411,1.74411,0,0,1,.42969,1.27539,1.77836,1.77836,0,0,1-.23242.91992,1.47365,1.47365,0,0,1-.6582.5918l1.10156,2.418v.04688H90.0332Zm-1-.61328h.86719a.93221.93221,0,0,0,.7168-.28906,1.102,1.102,0,0,0,.26758-.77539q0-1.0957-.99219-1.0957h-.85937Z" transform="translate(-0.5 0.29662)" style="fill: #fff"/>
    <path d="M94.0332,66.69336a.87546.87546,0,0,0-.23047-.65234,2.355,2.355,0,0,0-.832-.44141,3.63913,3.63913,0,0,1-.91992-.45117,1.58379,1.58379,0,0,1-.47656-.53906,1.59889,1.59889,0,0,1,.293-1.80664,1.62533,1.62533,0,0,1,1.18164-.4375,1.75874,1.75874,0,0,1,.89063.22363A1.51653,1.51653,0,0,1,94.541,63.21a1.8352,1.8352,0,0,1,.21094.874H94.0332a1.19851,1.19851,0,0,0-.25391-.81641.92148.92148,0,0,0-.73047-.28906.90027.90027,0,0,0-.67187.24219.93023.93023,0,0,0-.23828.68164.79539.79539,0,0,0,.25781.60254,2.29737,2.29737,0,0,0,.79688.43457,2.74323,2.74323,0,0,1,1.20117.68359,1.53693,1.53693,0,0,1,.36133,1.0625,1.436,1.436,0,0,1-.44922,1.10742,1.72959,1.72959,0,0,1-1.22266.416,1.96707,1.96707,0,0,1-.916-.2168,1.6368,1.6368,0,0,1-.66016-.60937,1.68922,1.68922,0,0,1-.24023-.90039h.71875a1.10212,1.10212,0,0,0,.29492.82031,1.08932,1.08932,0,0,0,.80273.293.95688.95688,0,0,0,.71094-.24219A.89907.89907,0,0,0,94.0332,66.69336Z" transform="translate(-0.5 0.29662)" style="fill: #fff"/>
    <path d="M98.41992,65.502H96.4082v2.01563H98.752v.61328H95.69336v-5.6875h3.01953v.61328H96.4082v1.832h2.01172Z" transform="translate(-0.5 0.29662)" style="fill: #fff"/>
  </g>
  <rect x="21.83448" y="38.69358" width="27.53023" height="27.53023" style="fill: #1e1e1c"/>
  <g>
    <path d="M28.26709,47.42139v3.9165l-1.23682,1.23682-.41211-.4126V46.80273ZM26.61816,58.7583V53.39893l.41211-.41211,1.23682,1.23682v3.9165Zm7.21436,1.44287H27.64844a1.32273,1.32273,0,0,1-1.03027-1.03076l1.64893-.61816h4.94678Zm-.61865-13.19189H28.2876l-1.64893-.61865a1.32462,1.32462,0,0,1,1.03076-1.03076h6.16309Zm.4126,4.32861V47.00928l.61816-1.64941a1.32593,1.32593,0,0,1,1.03076,1.03076v5.77148l-.4126.4126Zm1.23633,1.64893.4126.41211v5.77148a1.32462,1.32462,0,0,1-1.03076,1.03076l-.61816-1.64893V54.22363Z" transform="translate(-0.5 0.29662)" style="fill: #56c3f1"/>
    <path d="M38.57275,46.80273v4.53516l-1.23633,1.23682-.41211-.4126V46.18457Zm5.35938,5.15332.82422.82471-.82422.82422H38.57275l-.82422-.82422.82422-.82471Zm0-.61816V47.00928l.61914-1.64941a1.32355,1.32355,0,0,1,1.0293,1.03076v5.77148l-.41211.4126Zm1.23633,1.64893.41211.41211v5.77148a1.32224,1.32224,0,0,1-1.0293,1.03076l-.61914-1.64893V54.22363Z" transform="translate(-0.5 0.29662)" style="fill: #56c3f1"/>
  </g>
  <rect x="19.63097" y="36.49006" width="31.93725" height="31.93725" style="fill: none;stroke: #fff;stroke-miterlimit: 10"/>
  <line x1="35.59959" y1="93.42602" x2="83.77736" y2="93.42602" style="fill: none;stroke: #fff;stroke-miterlimit: 10;stroke-width: 0.75px"/>
  <line x1="35.59959" y1="144.42602" x2="83.77736" y2="144.42602" style="fill: none;stroke: #fff;stroke-miterlimit: 10;stroke-width: 0.75px"/>
  <line x1="35.59959" y1="195.42602" x2="83.77736" y2="195.42602" style="fill: none;stroke: #fff;stroke-miterlimit: 10;stroke-width: 0.75px"/>
  <line x1="35.59959" y1="246.42602" x2="83.77736" y2="246.42602" style="fill: none;stroke: #fff;stroke-miterlimit: 10;stroke-width: 0.75px"/>
  <g>
    <path d="M25.69531,119.69189a.87353.87353,0,0,0-.23047-.65234,2.36416,2.36416,0,0,0-.832-.44141,3.60655,3.60655,0,0,1-.91992-.45117,1.598,1.598,0,0,1-.47656-.53906,1.59889,1.59889,0,0,1,.293-1.80664,1.62656,1.62656,0,0,1,1.18164-.4375,1.76086,1.76086,0,0,1,.89063.22314,1.52551,1.52551,0,0,1,.60156.62109,1.83713,1.83713,0,0,1,.21094.87451h-.71875a1.19689,1.19689,0,0,0-.25391-.81641.91988.91988,0,0,0-.73047-.28906.89934.89934,0,0,0-.67187.24268.93061.93061,0,0,0-.23828.68066.795.795,0,0,0,.25781.603,2.2895,2.2895,0,0,0,.79688.43408,2.73757,2.73757,0,0,1,1.20117.68408,1.5401,1.5401,0,0,1,.36133,1.0625,1.43771,1.43771,0,0,1-.44922,1.10742,1.72877,1.72877,0,0,1-1.22266.416,1.96707,1.96707,0,0,1-.916-.2168,1.63993,1.63993,0,0,1-.66016-.60937,1.69042,1.69042,0,0,1-.24023-.90039h.71875a1.10406,1.10406,0,0,0,.29492.82031,1.08932,1.08932,0,0,0,.80273.293.9549.9549,0,0,0,.71094-.24219A.90106.90106,0,0,0,25.69531,119.69189Z" transform="translate(-0.5 0.29662)" style="fill: #fff"/>
    <path d="M30.00781,119.64111H28.08594l-.44141,1.48828h-.73437l1.832-5.6875h.61328l1.83594,5.6875H30.457Zm-1.73437-.61328h1.55078l-.77734-2.58594Z" transform="translate(-0.5 0.29662)" style="fill: #fff"/>
    <path d="M32.88672,115.44189l1.48438,4.64063,1.48438-4.64062h.92188v5.6875H36.0625v-2.21484l.06641-2.21875-1.48828,4.43359h-.54687l-1.48047-4.418.06641,2.20313v2.21484h-.71484v-5.6875Z" transform="translate(-0.5 0.29662)" style="fill: #fff"/>
    <path d="M38.72266,118.90283v2.22656h-.71484v-5.6875h1.8125a1.641,1.641,0,0,1,1.24609.47461,2.02621,2.02621,0,0,1,.02148,2.52734,1.66906,1.66906,0,0,1-1.2168.459Zm0-.61328h1.09766a.926.926,0,0,0,.73047-.28564,1.19075,1.19075,0,0,0,.25391-.81787,1.23,1.23,0,0,0-.26172-.82178.89149.89149,0,0,0-.71875-.30908H38.72266Z" transform="translate(-0.5 0.29662)" style="fill: #fff"/>
    <path d="M43.16016,120.51611h2.23047v.61328H42.44141v-5.6875h.71875Z" transform="translate(-0.5 0.29662)" style="fill: #fff"/>
    <path d="M48.96875,118.50049H46.957v2.01563h2.34375v.61328H46.24219v-5.6875h3.01953v.61328H46.957v1.832h2.01172Z" transform="translate(-0.5 0.29662)" style="fill: #fff"/>
  </g>
  <g>
    <path d="M28.92188,170.69189a.87353.87353,0,0,0-.23047-.65234,2.36416,2.36416,0,0,0-.832-.44141,3.60655,3.60655,0,0,1-.91992-.45117,1.598,1.598,0,0,1-.47656-.53906,1.59889,1.59889,0,0,1,.293-1.80664,1.62656,1.62656,0,0,1,1.18164-.4375,1.76086,1.76086,0,0,1,.89063.22314,1.52551,1.52551,0,0,1,.60156.62109,1.83713,1.83713,0,0,1,.21094.87451h-.71875a1.19689,1.19689,0,0,0-.25391-.81641.91988.91988,0,0,0-.73047-.28906.89934.89934,0,0,0-.67187.24268.93061.93061,0,0,0-.23828.68066.795.795,0,0,0,.25781.603,2.2895,2.2895,0,0,0,.79688.43408,2.73757,2.73757,0,0,1,1.20117.68408,1.5401,1.5401,0,0,1,.36133,1.0625,1.43771,1.43771,0,0,1-.44922,1.10742,1.72877,1.72877,0,0,1-1.22266.416,1.96707,1.96707,0,0,1-.916-.2168,1.63993,1.63993,0,0,1-.66016-.60937,1.69042,1.69042,0,0,1-.24023-.90039H26.875a1.10406,1.10406,0,0,0,.29492.82031,1.08932,1.08932,0,0,0,.80273.293.9549.9549,0,0,0,.71094-.24219A.90106.90106,0,0,0,28.92188,170.69189Z" transform="translate(-0.5 0.29662)" style="fill: #fff"/>
    <path d="M33.90625,167.05518H32.41016v5.07422h-.71484v-5.07422H30.20313v-.61328h3.70313Z" transform="translate(-0.5 0.29662)" style="fill: #fff"/>
    <path d="M37.08984,170.64111H35.168l-.44141,1.48828h-.73437l1.832-5.6875h.61328l1.83594,5.6875h-.73437Zm-1.73437-.61328h1.55078l-.77734-2.58594Z" transform="translate(-0.5 0.29662)" style="fill: #fff"/>
    <path d="M40.76563,169.82861h-1v2.30078h-.71875v-5.6875h1.59375a1.70192,1.70192,0,0,1,1.26563.43555,1.74205,1.74205,0,0,1,.42969,1.27539,1.77366,1.77366,0,0,1-.23242.91992,1.46859,1.46859,0,0,1-.6582.5918l1.10156,2.418v.04688h-.76953Zm-1-.61328h.86719a.92942.92942,0,0,0,.7168-.28955,1.09691,1.09691,0,0,0,.26758-.7749q0-1.0957-.99219-1.0957h-.85937Z" transform="translate(-0.5 0.29662)" style="fill: #fff"/>
    <path d="M46.30469,167.05518H44.80859v5.07422h-.71484v-5.07422H42.60156v-.61328h3.70313Z" transform="translate(-0.5 0.29662)" style="fill: #fff"/>
  </g>
  <g>
    <path d="M27.49219,220.90234v2.22656h-.71484v-5.6875h1.8125a1.641,1.641,0,0,1,1.24609.47461,2.02621,2.02621,0,0,1,.02148,2.52734,1.6651,1.6651,0,0,1-1.2168.459Zm0-.61328h1.09766a.92576.92576,0,0,0,.73047-.28516,1.19126,1.19126,0,0,0,.25391-.81836,1.22866,1.22866,0,0,0-.26172-.82129.89184.89184,0,0,0-.71875-.30957H27.49219Z" transform="translate(-0.5 0.29662)" style="fill: #fff"/>
    <path d="M31.957,223.12891h-.71484v-5.6875H31.957Z" transform="translate(-0.5 0.29662)" style="fill: #fff"/>
    <path d="M36.42188,218.05469H34.92578v5.07422h-.71484v-5.07422H32.71875v-.61328h3.70313Z" transform="translate(-0.5 0.29662)" style="fill: #fff"/>
    <path d="M40.71875,221.32031a2.10855,2.10855,0,0,1-.51367,1.40039,1.741,1.741,0,0,1-1.31836.48633,1.62977,1.62977,0,0,1-1.35937-.65039,2.80845,2.80845,0,0,1-.50391-1.76367v-1.03125a2.72392,2.72392,0,0,1,.51758-1.75391,1.71418,1.71418,0,0,1,1.41211-.64453,1.64331,1.64331,0,0,1,1.27539.49219,2.15721,2.15721,0,0,1,.49023,1.41016h-.72266a1.7598,1.7598,0,0,0-.293-.99219.92025.92025,0,0,0-.75-.29687,1.02139,1.02139,0,0,0-.89453.45508,2.35574,2.35574,0,0,0-.3125,1.334v1.043a2.4894,2.4894,0,0,0,.291,1.32422.9424.9424,0,0,0,.84961.46094,1.02481,1.02481,0,0,0,.80469-.27734,1.74356,1.74356,0,0,0,.30469-.99609Z" transform="translate(-0.5 0.29662)" style="fill: #fff"/>
    <path d="M45.41016,223.12891h-.71875V220.5H42.40234v2.62891H41.6875v-5.6875h.71484v2.44531h2.28906v-2.44531h.71875Z" transform="translate(-0.5 0.29662)" style="fill: #fff"/>
  </g>
  <g>
    <path d="M28.65234,273.29688a.875.875,0,0,0-.23047-.65234,2.38026,2.38026,0,0,0-.832-.44141,3.57456,3.57456,0,0,1-.91992-.45117,1.589,1.589,0,0,1-.47656-.53906,1.59889,1.59889,0,0,1,.293-1.80664,1.62858,1.62858,0,0,1,1.18164-.4375,1.75619,1.75619,0,0,1,.89063.22363,1.51958,1.51958,0,0,1,.60156.62109,1.8352,1.8352,0,0,1,.21094.874h-.71875a1.19775,1.19775,0,0,0-.25391-.81641.92148.92148,0,0,0-.73047-.28906.89767.89767,0,0,0-.67187.24316.92983.92983,0,0,0-.23828.68066.79391.79391,0,0,0,.25781.60254,2.28147,2.28147,0,0,0,.79688.43457,2.73741,2.73741,0,0,1,1.20117.68359,1.541,1.541,0,0,1,.36133,1.0625,1.43771,1.43771,0,0,1-.44922,1.10742,1.72877,1.72877,0,0,1-1.22266.416,1.96707,1.96707,0,0,1-.916-.2168,1.63992,1.63992,0,0,1-.66016-.60937,1.68922,1.68922,0,0,1-.24023-.90039h.71875a1.10406,1.10406,0,0,0,.29492.82031,1.08932,1.08932,0,0,0,.80273.293.95294.95294,0,0,0,.71094-.24219A.89952.89952,0,0,0,28.65234,273.29688Z" transform="translate(-0.5 0.29662)" style="fill: #fff"/>
    <path d="M31.02734,272.50781v2.22656H30.3125v-5.6875H32.125a1.641,1.641,0,0,1,1.24609.47461,2.02621,2.02621,0,0,1,.02148,2.52734,1.6651,1.6651,0,0,1-1.2168.459Zm0-.61328H32.125a.92576.92576,0,0,0,.73047-.28516,1.19126,1.19126,0,0,0,.25391-.81836,1.22866,1.22866,0,0,0-.26172-.82129.89184.89184,0,0,0-.71875-.30957H31.02734Z" transform="translate(-0.5 0.29662)" style="fill: #fff"/>
    <path d="M37.47266,272.10547H35.46094v2.01563h2.34375v.61328H34.74609v-5.6875h3.01953v.61328H35.46094v1.832h2.01172Z" transform="translate(-0.5 0.29662)" style="fill: #fff"/>
    <path d="M41.44531,272.10547H39.43359v2.01563h2.34375v.61328H38.71875v-5.6875h3.01953v.61328H39.43359v1.832h2.01172Z" transform="translate(-0.5 0.29662)" style="fill: #fff"/>
    <path d="M42.69141,274.73438v-5.6875h1.35547a1.95736,1.95736,0,0,1,1.54688.623,2.56,2.56,0,0,1,.55078,1.752v.95313a2.5028,2.5028,0,0,1-.55859,1.74414,2.07828,2.07828,0,0,1-1.62109.61523Zm.71484-5.07422v4.46094h.57422a1.33056,1.33056,0,0,0,1.10156-.43164,2.04085,2.04085,0,0,0,.35547-1.28027v-1.00879a2.06083,2.06083,0,0,0-.3457-1.31934,1.27419,1.27419,0,0,0-1.04492-.4209Z" transform="translate(-0.5 0.29662)" style="fill: #fff"/>
  </g>
  <g>
    <path d="M88.457,119.3208a2.10608,2.10608,0,0,1-.51367,1.40039,1.73949,1.73949,0,0,1-1.31836.48633,1.62977,1.62977,0,0,1-1.35937-.65039,2.80845,2.80845,0,0,1-.50391-1.76367v-1.03125a2.72584,2.72584,0,0,1,.51758-1.75391,1.71547,1.71547,0,0,1,1.41211-.64453,1.6426,1.6426,0,0,1,1.27539.49219,2.15359,2.15359,0,0,1,.49023,1.41016h-.72266a1.75715,1.75715,0,0,0-.293-.99219.91875.91875,0,0,0-.75-.29687,1.02143,1.02143,0,0,0-.89453.45508,2.35863,2.35863,0,0,0-.3125,1.334v1.043a2.49635,2.49635,0,0,0,.291,1.32422.94445.94445,0,0,0,.84961.46094,1.02585,1.02585,0,0,0,.80469-.27734,1.74627,1.74627,0,0,0,.30469-.99609Z" transform="translate(-0.5 0.29662)" style="fill: #fff"/>
    <path d="M91.05078,120.03174l1.30078-4.58984h.78516l-1.76953,5.6875h-.625l-1.76562-5.6875h.78125Z" transform="translate(-0.5 0.29662)" style="fill: #fff"/>
  </g>
  <g>
    <path d="M88.457,170.3208a2.10608,2.10608,0,0,1-.51367,1.40039,1.73949,1.73949,0,0,1-1.31836.48633,1.62977,1.62977,0,0,1-1.35937-.65039,2.80845,2.80845,0,0,1-.50391-1.76367v-1.03125a2.72584,2.72584,0,0,1,.51758-1.75391,1.71547,1.71547,0,0,1,1.41211-.64453,1.6426,1.6426,0,0,1,1.27539.49219,2.15359,2.15359,0,0,1,.49023,1.41016h-.72266a1.75715,1.75715,0,0,0-.293-.99219.91875.91875,0,0,0-.75-.29687,1.02143,1.02143,0,0,0-.89453.45508,2.35863,2.35863,0,0,0-.3125,1.334v1.043a2.49635,2.49635,0,0,0,.291,1.32422.94445.94445,0,0,0,.84961.46094,1.02585,1.02585,0,0,0,.80469-.27734,1.74627,1.74627,0,0,0,.30469-.99609Z" transform="translate(-0.5 0.29662)" style="fill: #fff"/>
    <path d="M91.05078,171.03174l1.30078-4.58984h.78516l-1.76953,5.6875h-.625l-1.76562-5.6875h.78125Z" transform="translate(-0.5 0.29662)" style="fill: #fff"/>
  </g>
  <g>
    <path d="M88.457,221.32031a2.10608,2.10608,0,0,1-.51367,1.40039,1.73949,1.73949,0,0,1-1.31836.48633,1.62977,1.62977,0,0,1-1.35937-.65039,2.80845,2.80845,0,0,1-.50391-1.76367v-1.03125a2.72677,2.72677,0,0,1,.51758-1.75391,1.71547,1.71547,0,0,1,1.41211-.64453,1.6426,1.6426,0,0,1,1.27539.49219,2.15459,2.15459,0,0,1,.49023,1.41016h-.72266a1.7598,1.7598,0,0,0-.293-.99219.92025.92025,0,0,0-.75-.29687,1.02253,1.02253,0,0,0-.89453.45508,2.35971,2.35971,0,0,0-.3125,1.334v1.043a2.494,2.494,0,0,0,.291,1.32422.94347.94347,0,0,0,.84961.46094,1.02411,1.02411,0,0,0,.80469-.27734,1.74356,1.74356,0,0,0,.30469-.99609Z" transform="translate(-0.5 0.29662)" style="fill: #fff"/>
    <path d="M91.05078,222.03125l1.30078-4.58984h.78516l-1.76953,5.6875h-.625l-1.76562-5.6875h.78125Z" transform="translate(-0.5 0.29662)" style="fill: #fff"/>
  </g>
  <g>
    <path d="M88.457,272.92578a2.10608,2.10608,0,0,1-.51367,1.40039,1.73949,1.73949,0,0,1-1.31836.48633,1.62977,1.62977,0,0,1-1.35937-.65039,2.80845,2.80845,0,0,1-.50391-1.76367v-1.03125a2.72677,2.72677,0,0,1,.51758-1.75391,1.71547,1.71547,0,0,1,1.41211-.64453,1.6426,1.6426,0,0,1,1.27539.49219,2.15459,2.15459,0,0,1,.49023,1.41016h-.72266a1.7598,1.7598,0,0,0-.293-.99219.92025.92025,0,0,0-.75-.29687,1.02253,1.02253,0,0,0-.89453.45508,2.35971,2.35971,0,0,0-.3125,1.334v1.043a2.494,2.494,0,0,0,.291,1.32422.94347.94347,0,0,0,.84961.46094,1.02411,1.02411,0,0,0,.80469-.27734,1.74356,1.74356,0,0,0,.30469-.99609Z" transform="translate(-0.5 0.29662)" style="fill: #fff"/>
    <path d="M91.05078,273.63672l1.30078-4.58984h.78516l-1.76953,5.6875h-.625l-1.76562-5.6875h.78125Z" transform="translate(-0.5 0.29662)" style="fill: #fff"/>
  </g>
  <g id="layer1-2" data-name="layer1">
    <path id="path7255" d="M89.216,104.61769a11.48829,11.48829,0,1,1,11.48828-11.4883A11.49964,11.49964,0,0,1,89.216,104.61769" transform="translate(-0.5 0.29662)" style="fill: #e7e6e6;stroke: #646764;stroke-width: 0.25px"/>
    <path id="path7261" d="M89.216,101.40289a8.27345,8.27345,0,1,1,8.27342-8.2735,8.2822,8.2822,0,0,1-8.27342,8.2735" transform="translate(-0.5 0.29662)" style="fill: #e7e6e6;stroke: #646764;stroke-width: 0.25px"/>
    <path id="path7265" d="M94.31761,93.12939a5.10156,5.10156,0,1,1-5.10155-5.10148,5.103,5.103,0,0,1,5.10155,5.10148" transform="translate(-0.5 0.29662)" style="fill: #010101"/>
  </g>
  <g id="layer1-3" data-name="layer1">
    <path id="path7255-2" data-name="path7255" d="M89.216,155.61769a11.48829,11.48829,0,1,1,11.48828-11.4883A11.49964,11.49964,0,0,1,89.216,155.61769" transform="translate(-0.5 0.29662)" style="fill: #e7e6e6;stroke: #646764;stroke-width: 0.25px"/>
    <path id="path7261-2" data-name="path7261" d="M89.216,152.40289a8.27345,8.27345,0,1,1,8.27342-8.2735,8.2822,8.2822,0,0,1-8.27342,8.2735" transform="translate(-0.5 0.29662)" style="fill: #e7e6e6;stroke: #646764;stroke-width: 0.25px"/>
    <path id="path7265-2" data-name="path7265" d="M94.31761,144.12939a5.10156,5.10156,0,1,1-5.10155-5.10148,5.103,5.103,0,0,1,5.10155,5.10148" transform="translate(-0.5 0.29662)" style="fill: #010101"/>
  </g>
  <g id="layer1-4" data-name="layer1">
    <path id="path7255-3" data-name="path7255" d="M89.216,206.61769a11.48829,11.48829,0,1,1,11.48828-11.4883A11.49964,11.49964,0,0,1,89.216,206.61769" transform="translate(-0.5 0.29662)" style="fill: #e7e6e6;stroke: #646764;stroke-width: 0.25px"/>
    <path id="path7261-3" data-name="path7261" d="M89.216,203.40289a8.27345,8.27345,0,1,1,8.27342-8.2735,8.2822,8.2822,0,0,1-8.27342,8.2735" transform="translate(-0.5 0.29662)" style="fill: #e7e6e6;stroke: #646764;stroke-width: 0.25px"/>
    <path id="path7265-3" data-name="path7265" d="M94.31761,195.12939a5.10156,5.10156,0,1,1-5.10155-5.10148,5.103,5.103,0,0,1,5.10155,5.10148" transform="translate(-0.5 0.29662)" style="fill: #010101"/>
  </g>
  <g id="layer1-5" data-name="layer1">
    <path id="path7255-4" data-name="path7255" d="M89.216,257.61769a11.48829,11.48829,0,1,1,11.48828-11.4883A11.49964,11.49964,0,0,1,89.216,257.61769" transform="translate(-0.5 0.29662)" style="fill: #e7e6e6;stroke: #646764;stroke-width: 0.25px"/>
    <path id="path7261-4" data-name="path7261" d="M89.216,254.40289a8.27345,8.27345,0,1,1,8.27342-8.2735,8.2822,8.2822,0,0,1-8.27342,8.2735" transform="translate(-0.5 0.29662)" style="fill: #e7e6e6;stroke: #646764;stroke-width: 0.25px"/>
    <path id="path7265-4" data-name="path7265" d="M94.31761,246.12939a5.10156,5.10156,0,1,1-5.10155-5.10148,5.103,5.103,0,0,1,5.10155,5.10148" transform="translate(-0.5 0.29662)" style="fill: #010101"/>
  </g>
  <g>
    <path id="rect6" d="M46.1407,285H70.05849a2.38793,2.38793,0,0,1,2.258,2.4994V325.5006A2.38793,2.38793,0,0,1,70.05849,328H46.1407a2.38793,2.38793,0,0,1-2.258-2.4994V287.4994A2.38793,2.38793,0,0,1,46.1407,285Z" transform="translate(-0.5 0.29662)" style="fill: #fff"/>
    <g id="layer1-6" data-name="layer1">
      <path id="path7255-5" data-name="path7255" d="M58.09959,312.11769a11.48829,11.48829,0,1,1,11.48828-11.4883,11.49964,11.49964,0,0,1-11.48828,11.4883" transform="translate(-0.5 0.29662)" style="fill: #e7e6e6;stroke: #646764;stroke-width: 0.25px"/>
      <path id="path7261-5" data-name="path7261" d="M58.09959,308.90289a8.27345,8.27345,0,1,1,8.27342-8.2735,8.2822,8.2822,0,0,1-8.27342,8.2735" transform="translate(-0.5 0.29662)" style="fill: #e7e6e6;stroke: #646764;stroke-width: 0.25px"/>
      <path id="path7265-5" data-name="path7265" d="M63.20116,300.62939a5.10156,5.10156,0,1,1-5.10155-5.10148,5.103,5.103,0,0,1,5.10155,5.10148" transform="translate(-0.5 0.29662)" style="fill: #010101"/>
    </g>
    <g>
      <path d="M55.5708,322.22266a3.06491,3.06491,0,0,1-.53662,1.9375,1.82783,1.82783,0,0,1-1.52393.67969,1.85056,1.85056,0,0,1-1.501-.66016,2.92206,2.92206,0,0,1-.57227-1.86914V321.1543a3.07078,3.07078,0,0,1,.54443-1.93164,1.819,1.819,0,0,1,1.52-.69922,1.84152,1.84152,0,0,1,1.51367.66895,3.01821,3.01821,0,0,1,.55566,1.91113Zm-.77295-1.07715a2.63409,2.63409,0,0,0-.31885-1.4502,1.22631,1.22631,0,0,0-1.94238.00586,2.55206,2.55206,0,0,0-.33105,1.41895v1.10254a2.60691,2.60691,0,0,0,.32715,1.43555,1.22984,1.22984,0,0,0,1.93994.03809,2.56344,2.56344,0,0,0,.3252-1.39844Z" transform="translate(-0.5 0.29662)" style="fill: #1e1e1c"/>
      <path d="M60.43066,318.6084v4.37012a1.99081,1.99081,0,0,1-3.28955,1.37793,1.89657,1.89657,0,0,1-.48975-1.37793V318.6084h.76855v4.33691a1.38909,1.38909,0,0,0,.26367.92578,1.34312,1.34312,0,0,0,1.70605,0,1.38909,1.38909,0,0,0,.26367-.92578V318.6084Z" transform="translate(-0.5 0.29662)" style="fill: #1e1e1c"/>
      <path d="M65.21387,319.27051H63.59766v5.48535h-.77344v-5.48535h-1.6123v-.66211h4.002Z" transform="translate(-0.5 0.29662)" style="fill: #1e1e1c"/>
    </g>
  </g>
  <path d="M60.35044,33.99094a1.22156,1.22156,0,0,1,1.15451.51829l8.26732-4.29144a1.66466,1.66466,0,1,1,3.22055-.4749l.00164.00054,11.08467,3.71409a2.66345,2.66345,0,0,1,1.16281-1.13625L82.8128,27.09554l-.0009-.0019a1.8843,1.8843,0,1,1,.34-.155L85.58174,32.171a2.95511,2.95511,0,0,1,.55081-.12667,2.70518,2.70518,0,0,1,1.9459,4.86325l2.47615,4.34461.00376.00658a1.85648,1.85648,0,0,1,.22254-.05106,1.87886,1.87886,0,0,1,1.89039.98141l8.13863-4.22455a1.88862,1.88862,0,1,1,.16972.33955l-8.16457,4.238a1.88014,1.88014,0,1,1-2.61445-1.15444l-.00259-.00458L87.7599,37.11264a2.64957,2.64957,0,0,1-.95153.30614,2.71123,2.71123,0,0,1-3.02913-2.35242,2.66755,2.66755,0,0,1,.143-1.25908L72.93469,30.124l-.00507-.00168a1.65773,1.65773,0,0,1-2.98553.434l-8.27081,4.29323a1.22485,1.22485,0,1,1-1.32284-.85858Z" transform="translate(-0.5 0.29662)" style="fill: #fff"/>
  <rect x="6.28362" y="7.01954" width="102.63193" height="350.21089" style="fill: none;stroke: #fff;stroke-miterlimit: 10"/>
</svg>
