<svg id="Layer_1" data-name="Layer 1" xmlns="http://www.w3.org/2000/svg" width="22" height="22" viewBox="0 0 22 22">
  <title>stellare_Jack</title>
  <g id="KNOBS_N_BUTTONS" data-name="KNOBS N BUTTONS">
    <g>
      <circle cx="11" cy="11" r="10.875" fill="#c5c8d1"/>
      <path d="M11,2.50212A8.49788,8.49788,0,1,1,2.50213,11,8.49788,8.49788,0,0,1,11,2.50212m0-.25A8.74788,8.74788,0,1,0,19.74787,11,8.75779,8.75779,0,0,0,11,2.25212Z" fill="#525356"/>
      <g>
        <circle cx="11" cy="11" r="8.12305" fill="#434447"/>
        <path d="M11,3.25212A7.74788,7.74788,0,1,1,3.25213,11,7.75665,7.75665,0,0,1,11,3.25212m0-.75A8.49788,8.49788,0,1,0,19.49787,11,8.49788,8.49788,0,0,0,11,2.50212Z" fill="#2c2d30"/>
      </g>
      <path id="path7265" d="M6.04067,11.00007A4.95931,4.95931,0,1,1,11,15.9593a4.96075,4.96075,0,0,1-4.9593-4.95923" stroke="#525356" stroke-width="0.25"/>
    </g>
  </g>
</svg>
