<?xml version="1.0" encoding="utf-8"?>
<!-- Generator: Adobe Illustrator 23.0.2, SVG Export Plug-In . SVG Version: 6.00 Build 0)  -->
<svg version="1.0"
	 id="stellare_Screw" inkscape:version="0.92.2 5c3e80d, 2017-08-06" sodipodi:docname="stellare_Screw.svg" xmlns:dc="http://purl.org/dc/elements/1.1/" xmlns:inkscape="http://www.inkscape.org/namespaces/inkscape" xmlns:rdf="http://www.w3.org/1999/02/22-rdf-syntax-ns#" xmlns:sodipodi="http://sodipodi.sourceforge.net/DTD/sodipodi-0.dtd" xmlns:svg="http://www.w3.org/2000/svg"
	 xmlns="http://www.w3.org/2000/svg" xmlns:xlink="http://www.w3.org/1999/xlink" x="0px" y="0px" width="15px" height="14.99889px"
	 viewBox="0 0 15 14.99889" enable-background="new 0 0 15 14.99889" xml:space="preserve">
<sodipodi:namedview  bordercolor="#666666" borderopacity="1.0" fit-margin-bottom="0" fit-margin-left="0" fit-margin-right="0" fit-margin-top="0" id="base" inkscape:current-layer="layer1" inkscape:cx="-60.109471" inkscape:cy="1.4049767" inkscape:document-units="mm" inkscape:pageopacity="0.0" inkscape:pageshadow="2" inkscape:window-height="1422" inkscape:window-maximized="0" inkscape:window-width="2560" inkscape:window-x="0" inkscape:window-y="18" inkscape:zoom="7.9195959" pagecolor="#ffffff" showgrid="false" units="px">
	</sodipodi:namedview>
<g>
	<circle fill="#4C4C4C" stroke="#222222" stroke-width="0.7" stroke-miterlimit="10" cx="7.49994" cy="7.50009" r="6.2"/>
	<g>
		<path fill="#222222" d="M7.38037,11.60352c-0.38867,0-0.73193-0.2334-0.875-0.59473L6.15527,10.125
			C6.08936,9.95898,5.92432,9.84668,5.74512,9.84668c0,0-0.9834,0.06836-0.98633,0.06836
			c-0.42725,0-0.74707-0.20313-0.90479-0.52832C3.6958,9.05957,3.73779,8.67871,3.96387,8.39355L4.5542,7.64844
			c0.11914-0.15137,0.12744-0.36035,0.01953-0.51953L4.04199,6.34033c-0.19824-0.29297-0.21777-0.6543-0.05225-0.96582
			C4.1543,5.06543,4.47021,4.87354,4.81543,4.87354c0.04639,0,0.09375,0.00342,0.14258,0.01025c0,0,0.95166,0.13916,0.95703,0.13916
			c0.22266,0,0.37207-0.09619,0.44385-0.24268l0.4165-0.85498c0.15869-0.32617,0.48242-0.52832,0.84424-0.52832
			c0.38818,0,0.73193,0.23291,0.87451,0.59424l0.35059,0.8833c0.06641,0.16943,0.22754,0.27832,0.40918,0.27832
			c0,0,0.98438-0.06787,0.9873-0.06787c0.42773,0,0.74707,0.20313,0.90527,0.52881c0.1582,0.32715,0.11621,0.70752-0.10938,0.99268
			l-0.59082,0.74512c-0.12012,0.15137-0.12793,0.36035-0.02051,0.52051l0.53223,0.78809
			c0.19824,0.29297,0.21777,0.65332,0.05273,0.96484c-0.16504,0.30957-0.48047,0.50098-0.82617,0.50098
			c-0.04688,0-0.09473-0.00293-0.14258-0.01074c0,0-0.95117-0.13867-0.95605-0.13867c-0.22266,0-0.37305,0.09668-0.44531,0.24316
			L8.22461,11.0752C8.06641,11.40137,7.74268,11.60352,7.38037,11.60352z"/>
		<path fill="#5B5B5B" d="M7.61947,3.64687C7.88375,3.64686,8.1475,3.79406,8.26192,4.08281l0.35031,0.88411
			c0.10478,0.26446,0.36014,0.43594,0.64133,0.43594c0.01617,0,0.03243-0.00057,0.04875-0.00172l0.94864-0.06678
			c0.01757-0.00124,0.03497-0.00184,0.05212-0.00184c0.56707,0,0.89891,0.66237,0.53732,1.11883l-0.59051,0.74543
			c-0.18679,0.2358-0.19934,0.56543-0.031,0.81474l0.53215,0.78815c0.31528,0.46695-0.03144,1.07685-0.56643,1.07685
			c-0.03466,0-0.07008-0.00256-0.10619-0.00788L9.13759,9.72996C9.1038,9.72498,9.07008,9.72254,9.03668,9.72254
			c-0.26087,0-0.50339,0.14819-0.62017,0.38793l-0.41649,0.85493c-0.12672,0.26013-0.3734,0.38792-0.61961,0.38792
			c-0.26429,0-0.52804-0.14719-0.64245-0.43594l-0.35031-0.88411C6.28286,9.76881,6.02751,9.59734,5.74631,9.59734
			c-0.01617,0-0.03243,0.00057-0.04874,0.00172L4.74894,9.66584C4.73137,9.66707,4.71396,9.66768,4.69681,9.66768
			c-0.56708,0-0.89892-0.66238-0.53733-1.11883L4.75,7.80342c0.18679-0.2358,0.19934-0.56543,0.031-0.81474L4.24885,6.20053
			C3.93356,5.73356,4.28028,5.12368,4.81527,5.12368c0.03466,0,0.07008,0.00256,0.1062,0.00788l0.94082,0.13868
			c0.03379,0.00498,0.0675,0.00741,0.10091,0.00741c0.26087,0,0.50339-0.14819,0.62017-0.38793l0.41649-0.85493
			C7.12658,3.77466,7.37326,3.64688,7.61947,3.64687 M7.6195,3.14686H7.61948C7.16102,3.14688,6.75135,3.4032,6.55036,3.81581
			L6.13387,4.67074C6.10223,4.73569,6.03524,4.77765,5.9632,4.77765L4.99438,4.6369
			C4.93343,4.62792,4.87372,4.62368,4.81527,4.62368c-0.43765,0-0.83852,0.24275-1.04618,0.63352
			C3.5625,5.64595,3.58755,6.11462,3.83446,6.48032l0.53215,0.78815c0.0466,0.06901,0.04316,0.15921-0.00854,0.22448
			L3.76756,8.23837C3.48165,8.59929,3.42843,9.08075,3.62867,9.49483c0.20069,0.41503,0.60999,0.67285,1.06815,0.67285
			c0.02873,0,0.05788-0.001,0.08732-0.00308l0.94854-0.06677c0.00045,0,0.00092,0,0.00137,0
			c0.09008,0,0.16043,0.04814,0.18876,0.11962l0.35031,0.88412c0.18095,0.45668,0.61558,0.75176,1.10729,0.75176
			c0.45845,0,0.86811-0.25633,1.06911-0.66895l0.41649-0.85492c0.03164-0.06495,0.09863-0.10691,0.17067-0.10691l0.96882,0.14075
			c0.06095,0.00897,0.12066,0.01322,0.1791,0.01322c0.43765,0,0.83853-0.24275,1.04619-0.63353
			c0.20659-0.38875,0.18154-0.85742-0.06537-1.22311l-0.53215-0.78815c-0.0466-0.06901-0.04316-0.15921,0.00854-0.22448
			l0.59051-0.74543c0.28592-0.36093,0.33914-0.84238,0.13889-1.25647c-0.20069-0.41501-0.60998-0.67283-1.06814-0.67283
			c-0.02873,0-0.05788,0.001-0.08732,0.00308L9.2672,4.90237c-0.00045,0-0.00091,0-0.00137,0
			c-0.09008,0-0.16043-0.04814-0.18876-0.11962L8.72676,3.89863C8.54581,3.44195,8.11119,3.14686,7.6195,3.14686L7.6195,3.14686z"/>
	</g>
</g>
</svg>
