<?xml version="1.0" encoding="utf-8"?>
<!-- Generator: Adobe Illustrator 23.0.1, SVG Export Plug-In . SVG Version: 6.00 Build 0)  -->
<svg version="1.0" id="Layer_1" xmlns="http://www.w3.org/2000/svg" xmlns:xlink="http://www.w3.org/1999/xlink" x="0px" y="0px"
	 width="28px" height="28px" viewBox="0 0 28 28" enable-background="new 0 0 28 28" xml:space="preserve">
<g id="background">
</g>
<g id="FUN">
</g>
<g id="PRINT">
</g>
<g id="JACKS">
</g>
<g id="LED_PUSH">
</g>
<g id="SCREENS">
</g>
<path fill="#E0DCD5" d="M14,0C6.3,0,0,6.3,0,14c0,7.7,6.3,14,14,14c7.7,0,14-6.3,14-14C28,6.3,21.7,0,14,0z"/>
<g>
	<path fill="#AFACA7" d="M26.9,9.8c0-0.3-0.1-0.9-0.1-1.2c-0.5-1.3-1.3-2.4-2.1-3.5c0,0-0.1-0.1-0.1-0.1c-1.1-0.2-2.7-0.8-4.4-1.8
		c-1.7-1-3-2-3.7-2.9c0,0-0.1-0.1-0.1-0.1c-1.5-0.3-3.1-0.3-4.7,0c0,0-0.1,0-0.1,0.1c-0.8,0.9-2.1,1.9-3.8,2.9
		C6.1,4.2,4.5,4.8,3.4,5c0,0-0.1,0-0.1,0.1C2.3,6.3,1.5,7.7,1,9.2c0,0,0,0.1,0,0.1c0.4,1.1,0.6,2.8,0.6,4.7c0,1.7-0.2,3.1-0.5,4.2
		c0,0.3,0.1,0.9,0.1,1.2c0.5,1.3,1.3,2.4,2.1,3.5c0,0,0.1,0.1,0.1,0.1c1.1,0.2,2.7,0.8,4.4,1.8c1.7,1,3,2,3.7,2.9
		c0,0,0.1,0.1,0.1,0.1c1.5,0.3,3.1,0.3,4.7,0c0,0,0.1,0,0.1-0.1c0.8-0.9,2.1-1.9,3.8-2.9c1.7-1,3.2-1.6,4.4-1.8c0,0,0.1,0,0.1-0.1
		c1-1.2,1.8-2.6,2.3-4.1c0,0,0-0.1,0-0.1c-0.4-1.1-0.6-2.8-0.6-4.7C26.4,12.3,26.6,10.9,26.9,9.8z"/>
</g>
<g>
	<path fill="#8C8985" d="M16.5,0.3l-0.4,2.1l-4.1,0l-0.3-2.2c0,0,1.1-0.3,2.4-0.3C16.1,0,16.5,0.3,16.5,0.3z"/>
	<path fill="#8C8985" d="M16.5,27.7l-0.4-2.1l-4.1,0l-0.3,2.2c0,0,1.1,0.3,2.4,0.3C16.1,28,16.5,27.7,16.5,27.7z"/>
	<path fill="#8C8985" d="M3.4,5.1l1.7,1.4L3,10.1L1,9.2c0,0,0.3-1,0.9-2.2C3,5.2,3.4,5.1,3.4,5.1z"/>
	<path fill="#8C8985" d="M27.1,18.7L25,18L23,21.6l1.8,1.3c0,0,0.8-0.8,1.4-1.9C27.2,19.2,27.1,18.7,27.1,18.7z"/>
	<path fill="#8C8985" d="M1.1,18.9l2-0.8l2.1,3.6L3.4,23c0,0-0.8-0.8-1.4-1.9C0.9,19.3,1.1,18.9,1.1,18.9z"/>
	<path fill="#8C8985" d="M24.6,5L23,6.4l2.1,3.6l2-0.9c0,0-0.3-1-1-2.2C25.1,5.1,24.6,5,24.6,5z"/>
</g>
<g>
	<g>
		<path fill="#F9F8F7" d="M14,25.5c-0.7,0-1.3-0.1-2-0.2c-0.6-0.8-1.8-1.7-3.2-2.5c-1.4-0.8-2.8-1.4-3.8-1.6
			c-0.7-0.8-1.2-1.8-1.7-2.8l0-0.4l0-0.5c0.3-0.9,0.4-2.2,0.4-3.5c0-1.6-0.2-3-0.5-4c0.5-1.2,1.1-2.3,1.9-3.3c1-0.2,2.3-0.7,3.7-1.5
			c1.4-0.8,2.5-1.7,3.2-2.5c0.6-0.1,1.2-0.1,1.9-0.1c0.7,0,1.3,0.1,2,0.2c0.6,0.8,1.8,1.7,3.2,2.5c1.4,0.8,2.8,1.4,3.8,1.6
			c0.7,0.8,1.2,1.8,1.7,2.8l0,0.9c-0.3,0.9-0.4,2.2-0.4,3.5c0,1.6,0.2,3,0.5,4c-0.5,1.2-1.1,2.3-1.9,3.3c-1,0.2-2.4,0.7-3.7,1.5
			c-1.4,0.8-2.5,1.7-3.2,2.5C15.3,25.4,14.7,25.5,14,25.5z"/>
		<path fill="#E0DCD5" d="M14,2.8c0.6,0,1.2,0,1.8,0.1c0.7,0.8,1.9,1.7,3.2,2.5c1.3,0.8,2.7,1.3,3.7,1.6c0.6,0.8,1.2,1.7,1.6,2.6
			l0.1,0.9c-0.3,1-0.4,2.3-0.4,3.6c0,1.5,0.2,3,0.5,4c-0.4,1.1-1,2.2-1.8,3.1c-1,0.2-2.4,0.8-3.7,1.6c-1.3,0.8-2.5,1.7-3.2,2.5
			c-0.6,0.1-1.2,0.1-1.8,0.1c-0.6,0-1.2,0-1.8-0.1c-0.7-0.8-1.9-1.7-3.2-2.5c-1.3-0.8-2.7-1.3-3.7-1.6c-0.6-0.8-1.2-1.7-1.6-2.6
			l0-0.4l0-0.4C3.9,16.6,4,15.3,4,14c0-1.5-0.2-3-0.5-4c0.4-1.1,1-2.2,1.8-3.1c1-0.2,2.4-0.8,3.7-1.6c1.3-0.8,2.5-1.7,3.2-2.5
			C12.8,2.8,13.4,2.8,14,2.8 M14,2.3c-0.7,0-1.3,0.1-2,0.2c0,0-0.1,0-0.1,0c-0.6,0.7-1.8,1.6-3.2,2.5C7.4,5.7,6,6.3,5.1,6.4
			c0,0-0.1,0-0.1,0.1c-0.9,1-1.5,2.2-2,3.4C3,10,3,10,3,10c0.3,0.9,0.5,2.3,0.5,4c0,1.4-0.2,2.6-0.4,3.6c0,0.3,0,0.7,0.1,1
			c0.5,1.1,1.1,2.1,1.8,2.9c0,0,0.1,0,0.1,0.1c1,0.2,2.3,0.7,3.7,1.5c1.4,0.8,2.5,1.7,3.2,2.4c0,0,0.1,0,0.1,0
			c0.7,0.1,1.3,0.2,2,0.2c0.7,0,1.3-0.1,2-0.2c0,0,0.1,0,0.1,0c0.6-0.7,1.8-1.6,3.2-2.5c1.4-0.8,2.7-1.3,3.7-1.5c0,0,0.1,0,0.1-0.1
			c0.9-1,1.5-2.2,2-3.4c0,0,0-0.1,0-0.1c-0.3-0.9-0.5-2.3-0.5-4c0-1.4,0.2-2.6,0.4-3.6c0-0.3,0-0.7-0.1-1c-0.5-1.1-1.1-2.1-1.8-2.9
			c0,0-0.1,0-0.1-0.1c-1-0.2-2.3-0.7-3.7-1.5c-1.4-0.8-2.5-1.7-3.2-2.4c0,0-0.1,0-0.1,0C15.3,2.3,14.7,2.3,14,2.3L14,2.3z"/>
	</g>
</g>
<ellipse fill="none" stroke="#BCB9B5" stroke-width="0.6" stroke-miterlimit="10" cx="14" cy="14" rx="7" ry="7"/>
<path fill="#434447" d="M14,6.2L14,6.2c-0.4,0-0.7-0.3-0.7-0.7V4.2c0-0.4,0.3-0.7,0.7-0.7h0c0.4,0,0.7,0.3,0.7,0.7v1.2
	C14.7,5.8,14.4,6.2,14,6.2z"/>
</svg>
